<?xml version="1.0" standalone="no"?>
<!DOCTYPE svg PUBLIC "-//W3C//DTD SVG 1.1//EN" "http://www.w3.org/Graphics/SVG/1.1/DTD/svg11.dtd" >
<!--
2013-9-30: Created.
-->
<svg>
<metadata>
Created by iconfont
</metadata>
<defs>

<font id="iconfont" horiz-adv-x="1024" >
  <font-face
    font-family="iconfont"
    font-weight="500"
    font-stretch="normal"
    units-per-em="1024"
    ascent="896"
    descent="-128"
  />
    <missing-glyph />
    
    <glyph glyph-name="x" unicode="x" horiz-adv-x="1001"
d="M281 543q-27 -1 -53 -1h-83q-18 0 -36.5 -6t-32.5 -18.5t-23 -32t-9 -45.5v-76h912v41q0 16 -0.5 30t-0.5 18q0 13 -5 29t-17 29.5t-31.5 22.5t-49.5 9h-133v-97h-438v97zM955 310v-52q0 -23 0.5 -52t0.5 -58t-10.5 -47.5t-26 -30t-33 -16t-31.5 -4.5q-14 -1 -29.5 -0.5
t-29.5 0.5h-32l-45 128h-439l-44 -128h-29h-34q-20 0 -45 1q-25 0 -41 9.5t-25.5 23t-13.5 29.5t-4 30v167h911zM163 247q-12 0 -21 -8.5t-9 -21.5t9 -21.5t21 -8.5q13 0 22 8.5t9 21.5t-9 21.5t-22 8.5zM316 123q-8 -26 -14 -48q-5 -19 -10.5 -37t-7.5 -25t-3 -15t1 -14.5
t9.5 -10.5t21.5 -4h37h67h81h80h64h36q23 0 34 12t2 38q-5 13 -9.5 30.5t-9.5 34.5q-5 19 -11 39h-368zM336 498v228q0 11 2.5 23t10 21.5t20.5 15.5t34 6h188q31 0 51.5 -14.5t20.5 -52.5v-227h-327z" />
    

    
    <glyph glyph-name="yue" unicode="&#58886;" d="M511.979-191.056c-300.633 0-426.734 107.535-426.734 328.527 0 183.079 142.992 374.138 316.335 434.413l220.799 0c173.35-60.275 316.335-251.333 316.335-434.413-0.001-220.992-126.102-328.527-426.737-328.527zM630.242 172.086l0 0.073c19.951 0.105 36.089 16.314 36.089 36.281 0 19.987-16.137 36.177-36.089 36.303l0 0.086-73.195 0c0.143 0.816-0.097 1.542-0.025 2.359l85.783 87.691c13.993 15.764 6.873 28.799-7.269 43.092-14.231 14.365-37.489 17.378-48.989 4.859l-73.762-78.629-79.675 79.676c-10.082 10.073-29.696 6.791-43.81-7.324-14.126-14.134-17.397-33.764-7.324-43.837l81.486-81.467c-1.525-1.95-2.512-4.115-3.104-6.42l-66.225 0 0-0.068c-0.062 0-0.126 0-0.186 0-20.057 0-36.319-16.245-36.319-36.319 0-20.037 16.262-36.316 36.319-36.316 0.061 0 0.124 0.036 0.186 0.036l0-0.073 72.591 0 0-36.175-72.591 0 0-0.106c-0.062 0-0.126 0-0.186 0-20.057 0-36.319-16.245-36.319-36.317 0-20.039 16.262-36.319 36.319-36.319 0.061 0 0.124 0.036 0.186 0.036l0-0.036 72.591 0 0-36.566 0.753 0c-0.569-2.836-0.895-5.798-0.895-8.83 0-25.075 20.322-45.398 45.396-45.398 25.076 0 45.398 20.323 45.398 45.398 0 3.031-0.33 5.994-0.896 8.83l0.425 0 0 36.566 73.338 0.036c19.951 0.125 36.089 16.315 36.089 36.284 0 19.984-16.137 36.175-36.089 36.299l0 0.125-73.338 0 0 36.174 73.337 0zM684.487 716.89l-7.632-9.54c-0.169-0.177-0.286-0.39-0.454-0.567l-64.548-80.686-217.906 0-64.426 80.545c-0.479 0.462-0.789 1.028-1.232 1.525l-6.978 8.724 1.231 2.466c-0.593 2.235-1.383 4.416-1.383 6.828 0 11.562 7.271 21.331 17.45 25.305l0.861 1.721c0 0 89.262 17.857 163.43 18.159 77.62 0.319 163.431-18.159 163.431-18.159l0.88-1.738c10.115-4.009 17.324-13.762 17.324-25.287 0-2.377-0.781-4.487-1.347-6.667l1.3-2.627z"  horiz-adv-x="1024" />

    
    <glyph glyph-name="wodemian2" unicode="&#58895;" d="M974.871-140.945c-0.001 208.131-142.509 382.963-335.269 432.259 78.65 40.328 132.478 122.222 132.478 216.678 0 134.387-108.961 243.346-243.348 243.346-134.386 0-243.345-108.96-243.345-243.346 0-94.455 53.828-176.349 132.477-216.678-192.758-49.296-335.266-224.128-335.266-432.259h40.56c0 0.027 0 0.053 0 0.080h811.154c0-0.027 0-0.053 0-0.080h40.559z"  horiz-adv-x="1024" />

    
    <glyph glyph-name="huiyuanzhongxin" unicode="&#58889;" d="M111.332 451.004c0.856 2.452 1.736 4.896 2.562 7.358 6.672 19.874 24.038 33.182 45.198 34.626 19.21 1.312 38.572-9.972 47.528-27.7 9.134-18.08 6.53-39.486-6.722-55.158-1.506-1.78-3.058-3.52-4.864-5.596 37.39-22.886 74.444-45.572 111.502-68.248 14.072-8.61 28.094-17.3 42.26-25.752 7.956-4.748 14.176-3.34 18.542 4.6 42.624 77.518 85.116 155.108 128.024 233.364-18.638 9.428-30.496 23.754-31.582 45.1-0.758 14.91 4.478 27.81 15.174 38.238 21.07 20.542 55.532 18.512 73.964-4.2 21.122-26.03 13.57-56.476-20.132-79.45 11.012-20.092 22.048-40.244 33.098-60.388 30.844-56.228 61.69-112.454 92.544-168.676 7.132-12.994 11.72-14.238 24.272-6.556 47.796 29.248 95.584 58.508 143.37 87.774 2.188 1.34 4.322 2.766 6.866 4.398-9.828 9.826-16.1 21.08-16.852 34.81-1.414 25.784 16.244 48.242 41.138 52.538 25.798 4.452 49.798-10.266 57.442-35.206 0.606-1.976 1.332-3.918 2.002-5.874 0-5.768 0-11.534 0-17.302-8.162-25.996-24.816-41.144-53.422-41.38-0.98-2.962-2.052-5.888-2.922-8.872-27.97-95.954-55.922-191.914-83.878-287.872-3.636-12.476-8.004-15.856-20.658-15.858-160.936-0.018-321.872-0.03-482.81-0.032-13.506 0-17.762 3.202-21.446 15.86-22.67 77.876-45.338 155.752-68.03 233.62-6.14 21.072-12.362 42.12-18.558 63.22-21.372 0.016-37.538 8.434-47.674 26.986-2.464 4.51-3.984 9.538-5.938 14.328C111.332 439.47 111.332 445.236 111.332 451.004zM513.99 29.422c75.222 0 150.444 0.054 225.666-0.036 20.12-0.024 36.188-14.206 38.414-33.378 2.228-19.198-10.502-36.862-29.84-41.202-2.78-0.624-5.708-0.812-8.568-0.812-150.444-0.036-300.888-0.052-451.332-0.002-17.198 0.006-31.546 10.256-36.674 25.716-5.136 15.486-0.428 33.012 13.412 41.77 7.11 4.5 16.462 7.574 24.83 7.638 74.694 0.576 149.394 0.336 224.092 0.336C513.99 29.44 513.99 29.432 513.99 29.422z"  horiz-adv-x="1024" />

    
    <glyph glyph-name="waimai" unicode="&#58904;" d="M383.733 707.627c0.271-0.352 0.352-1.135 0.352-2.461l0-154.891c0-1.326 0.225-2.109-0.063-2.461L130.413 547.814c-0.288 0.352-2.029 1.135-2.029 2.461l0 154.89c0 1.326 1.741 2.109 2.029 2.461l253.67 0M384.74 739.589 129.695 739.589c-17.659 0-33.272-15.406-33.272-34.424l0-154.891c0-19.018 15.613-34.424 33.272-34.424L384.74 515.85c17.659 0 31.307 15.406 31.307 34.424L416.047 705.165c0 19.018-13.983 34.424-31.627 34.424L384.74 739.589zM800.252 228.188c17.627 0 31.963-14.336 31.963-31.963 0-17.628-14.336-31.963-31.963-31.963-17.628 0-31.963 14.335-31.963 31.963C768.29 213.853 782.624 228.188 800.252 228.188M800.252 260.151c-35.304 0-63.926-28.623-63.926-63.925 0-35.303 28.623-63.925 63.926-63.925s63.925 28.623 63.925 63.925S835.555 260.151 800.252 260.151L800.252 260.151zM272.87 228.188c17.628 0 31.963-14.336 31.963-31.963 0-17.628-14.335-31.963-31.963-31.963-17.627 0-31.963 14.335-31.963 31.963C240.907 213.853 255.243 228.188 272.87 228.188M272.87 260.151c-35.303 0-63.925-28.623-63.925-63.925 0-35.303 28.623-63.925 63.925-63.925s63.925 28.623 63.925 63.925S308.172 260.151 272.87 260.151L272.87 260.151zM815.578 579.776 815.578 627.72c15.98 62.502-15.981 95.888-79.906 95.888-24.388 0-108.816-14.463-143.832-31.963-31.963-15.98-31.963-31.963-15.98-47.944 0.207 0 0.415-0.032 0.623-0.032 9.013 9.03 23.429 17.963 45.546 24.115-0.768 0.271 71.356 22.741 113.644 23.86 24.211 0.64 42.254-5.753 49.478-15.773 7.224-10.021 4.043-26.226 0.097-38.052-1.07-3.244-1.631-6.664-1.631-10.1l-0.016-47.944c0-4.075 0.782-8.103 2.285-11.875 8.23-20.567 21.351-50.229 36.532-84.589 39.299-88.808 105.029-237.465 105.029-281.765 0-74.904-60.937-135.841-135.841-135.841-53.073 0-101.593 31.323-123.615 79.811-5.194 11.411-16.572 18.746-29.102 18.746L416.942 164.262c-12.529 0-23.907-7.335-29.102-18.746-22.022-48.487-70.542-79.811-123.615-79.811-74.904 0-135.841 60.937-135.841 135.841 0 7.495 0.734 15.294 2.253 23.827 1.406 7.959-0.256 16.174-4.65 22.949-19.338 29.853-29.565 64.323-29.565 99.723 0 46.457 11.762 82.896 20.695 103.878L383.54 451.923c-28.383-26.129-39.905-73.354-28.191-123.007 14.606-61.88 58.348-101.849 111.422-101.849 6.057 0 12.257 0.526 18.458 1.55 131.622 21.942 219.199 116.04 234.27 251.736 6.633 59.658-7.814 112.731-40.672 149.44-2.19 2.445-4.618 4.555-6.937 6.808-12.13 10.963-50.085 3.644-36.006-11.283 37.14-25.602 59.083-76.31 51.843-141.435C671.747 340.058 575.86 276.132 479.971 260.151c-4.538-0.751-8.949-1.118-13.2-1.118-85.516 0-111.63 146.468-50.725 176.912l0 47.943L97.077 483.888c-16.973-30.828-32.618-79.905-32.618-135.841 0-43.197 12.833-83.342 34.695-117.095-1.694-9.557-2.733-19.354-2.733-29.405 0-92.676 75.128-167.803 167.803-167.803 67.952 0 126.332 40.464 152.717 98.557l221.948 0c26.385-58.076 84.765-98.557 152.717-98.557 92.676 0 167.803 75.128 167.803 167.803C959.409 269.675 847.541 499.87 815.578 579.776zM378.552 704.599c-1.313 3.1-0.468 0.925-0.468-0.265 0-1.133 0-2.266 0-3.398 0-4.261 0-8.521 0-12.782 0-14.047 0-28.094 0-42.141 0-28.767 0-57.535 0-86.302 0-2.36 0-4.721 0-7.082 0-0.841 0.136-3.271 0.151-3.219 1.929 1.468 3.857 2.937 5.786 4.405-45.427 0-90.854 0-136.281 0-39.109 0-78.217 0-117.326 0 1.414-0.586 2.829-1.171 4.243-1.757-3.953 3.123-0.272-3.75-0.272-0.95 0 1.133 0 2.266 0 3.398 0 4.261 0 8.521 0 12.782 0 14.047 0 28.094 0 42.141 0 28.767 0 57.535 0 86.302 0 2.361 0 4.721 0 7.082 0 0.606 0 1.212 0 1.818 0 1.857-3.642-4.341 0.272-1.246-1.414-0.586-2.829-1.171-4.243-1.757 45.438 0 90.876 0 136.315 0 39.118 0 78.237 0 117.355 0 7.738 0 7.738 12 0 12-45.438 0-90.876 0-136.315 0-29.278 0-58.556 0-87.834 0-8.252 0-16.504 0-24.756 0-6.154 0-12.794-1.044-12.794-9.137 0-49.875 0-99.749 0-149.623 0-6.401 1.527-13.052 9.333-13.052 6.297 0 12.593 0 18.89 0 27.427 0 54.854 0 82.282 0 49.994 0 99.988 0 149.982 0 0.383 0 0.766 0 1.148 0 2.695 0 5.043 1.835 5.786 4.405 0.639 2.209 0.278 5.237 0.278 7.604 0 4.06 0 8.12 0 12.18 0 13.829 0 27.658 0 41.487 0 29.066 0 58.132 0 87.199 0 5.023 0.822 11.263-1.171 15.967-1.277 3.014-5.662 3.645-8.209 2.152C377.617 710.999 377.276 707.61 378.552 704.599L378.552 704.599zM384.74 745.589c-45.336 0-90.671 0-136.007 0-29.432 0-58.864 0-88.296 0-16.854 0-37.874 3.067-52.466-6.985-12.628-8.7-17.548-22.59-17.548-37.321 0-10.45 0-20.899 0-31.348 0-31.124 0-62.247 0-93.371 0-8.429 0-16.858 0-25.287 0-18.914 12.409-35.929 31.015-40.478 5.642-1.379 11.808-0.949 17.583-0.949 9.741 0 19.482 0 29.223 0 60.527 0 121.054 0 181.582 0 9.173 0 18.347 0 27.521 0 7.546 0 14.755-0.073 21.89 3.136 15.543 6.989 22.812 23.046 22.812 39.379 0 9.384 0 18.768 0 28.152 0 31.197 0 62.394 0 93.591 0 9.568 0 19.136 0 28.703 0 16.146-6.923 31.641-21.923 39.119-4.899 2.442-10.257 3.537-15.704 3.659 0-4 0-8 0-12 0.107 0 0.213 0 0.32 0C392.478 733.589 392.478 745.589 384.74 745.589c-0.107 0-0.213 0-0.32 0-7.749 0-7.725-11.827 0-12 16.844-0.377 25.627-15.448 25.627-30.778 0-9.567 0-19.135 0-28.703 0-31.197 0-62.394 0-93.591 0-9.384 0-18.768 0-28.152 0-14.896-8.641-30.515-25.312-30.515-14.616 0-29.232 0-43.849 0-60.375 0-120.749 0-181.124 0-8.341 0-16.682 0-25.022 0-9.867 0-18.353 2.016-25.43 9.802-7.292 8.021-6.887 18.106-6.887 28.057 0 12.455 0 24.91 0 37.365 0 30.359 0 60.719 0 91.078 0 6.612-0.295 13.303 0.121 19.908 0.949 15.048 14.69 25.528 28.972 25.528 50.994 0 101.988 0 152.982 0 33.414 0 66.828 0 100.242 0C392.478 733.589 392.478 745.589 384.74 745.589zM800.252 222.188c14.379-0.308 25.655-11.584 25.963-25.963s-12.046-25.666-25.963-25.963c-14.379-0.308-25.666 12.046-25.963 25.963C773.982 210.604 786.336 221.892 800.252 222.188c7.727 0.165 7.743 12.165 0 12-20.969-0.448-37.514-16.994-37.963-37.963-0.449-20.967 17.669-37.529 37.963-37.963 20.967-0.448 37.529 17.669 37.963 37.963 0.448 20.967-17.669 37.529-37.963 37.963C792.509 234.354 792.526 222.354 800.252 222.188L800.252 222.188zM800.252 266.151c-23.173-0.25-44.076-11.448-57.537-30.211-13.374-18.642-15.844-44.089-7.531-65.27 8.265-21.059 26.56-36.855 48.44-42.377 22.555-5.691 46.456 0.978 63.7 16.235 21.435 18.966 28.364 50.832 17.996 77.252C854.85 248.461 828.755 265.844 800.252 266.151c-7.741 0.084-7.733-11.916 0-12 22.644-0.244 42.526-13.106 52.494-33.353 9.907-20.125 5.928-45.287-8.414-62.178-14.703-17.315-38.388-24.048-60.126-18.068-21.562 5.932-37.134 24.575-41.144 46.227-6.489 35.034 22.536 66.998 57.189 67.372C807.986 254.235 807.993 266.235 800.252 266.151zM272.87 222.188c14.379-0.308 25.656-11.584 25.963-25.963s-12.046-25.666-25.963-25.963c-14.379-0.308-25.666 12.046-25.963 25.963C246.6 210.604 258.954 221.892 272.87 222.188c7.727 0.165 7.743 12.165 0 12-20.968-0.448-37.515-16.994-37.963-37.963-0.448-20.967 17.668-37.529 37.963-37.963 20.967-0.448 37.529 17.668 37.963 37.963 0.448 20.967-17.668 37.529-37.963 37.963C265.128 234.354 265.143 222.354 272.87 222.188L272.87 222.188zM272.87 266.151c-23.172-0.25-44.076-11.449-57.536-30.211-13.374-18.642-15.844-44.089-7.532-65.27 8.265-21.059 26.56-36.855 48.44-42.377 22.555-5.691 46.455 0.979 63.699 16.235 21.436 18.966 28.365 50.832 17.997 77.252C327.468 248.461 301.373 265.844 272.87 266.151c-7.742 0.084-7.733-11.916 0-12 22.643-0.244 42.526-13.106 52.494-33.353 9.908-20.125 5.929-45.287-8.414-62.178-14.703-17.315-38.387-24.048-60.125-18.068-21.562 5.932-37.133 24.575-41.144 46.227-6.488 35.034 22.536 66.998 57.189 67.372C280.604 254.235 280.612 266.235 272.87 266.151zM821.578 579.776c0 12.417 0 24.833 0 37.25 0 5.382 0.036 9.861 1.08 14.577 2.26 10.203 3.417 20.765 2.818 31.211-0.99 17.315-7.698 33.866-20.673 45.627-14.123 12.801-33.046 18.1-51.568 20.242-17.12 1.979-33.95 0.063-50.907-2.375-21.45-3.083-42.775-7.313-63.791-12.596-27.179-6.832-103.731-28.089-71.634-68.928 2.717-3.457 6.106-8.296 11.174-6.902 3.947 1.085 7.884 6.38 11.274 8.779 10.307 7.292 22.202 11.904 34.271 15.336 3.131 0.89 5.082 4.213 4.191 7.381-0.002 0.004-0.003 0.008-0.004 0.012-0.919-2.259-1.838-4.518-2.758-6.776 0.15 0.112-1.918-0.738-0.55-0.247 0.644 0.231 1.295 0.441 1.945 0.654 2.497 0.815 5.014 1.574 7.531 2.326 8.067 2.411 16.192 4.631 24.342 6.744 21.129 5.478 42.635 10.379 64.368 12.67 11.902 1.255 24.015 1.495 35.777-0.972 8.461-1.774 19.849-5.542 23.454-14.341 5.028-12.273-2.284-24.692-3.906-36.71-0.698-5.172-0.401-10.506-0.403-15.713-0.004-12.417-0.008-24.833-0.012-37.25-0.004-11.922 6.571-23.529 11.129-34.275 5.317-12.542 10.789-25.019 16.273-37.489 19.608-44.593 39.522-89.053 58.427-133.953 17.418-41.368 34.661-83.092 48.005-125.987 4.205-13.515 8.629-28.325 9.804-41.835 1.747-20.087-3.506-41.539-11.976-59.641-18.817-40.216-58.204-68.824-102.326-74.029-48.062-5.67-96.116 16.77-123.114 56.808-6.693 9.927-10.293 22.234-18.997 30.636-6.876 6.638-16.587 10.254-26.084 10.254-5.339 0-10.677 0-16.016 0-27.776 0-55.554 0-83.331 0-30.542 0-61.083 0-91.625 0-8.794 0-17.589 0-26.383 0-12.277 0-23.549-2.97-32.346-12.236-4.086-4.305-6.321-9.577-8.935-14.798-2.83-5.651-6.142-11.051-9.729-16.249-6.768-9.81-15.148-18.479-24.299-26.079-18.322-15.216-41.059-24.611-64.518-28.072-45.154-6.659-90.794 13.104-119.169 48.196-13.918 17.212-22.726 38.245-26.417 59.978-2.085 12.277-2.118 25.068-0.419 37.389 0.978 7.095 1.97 13.347 0.719 20.497-1.301 7.435-5.938 13.555-9.676 19.896-29.398 49.871-29.251 109.978-13.412 164.326 2.548 8.744 5.562 17.397 9.113 25.786-1.727-0.991-3.454-1.981-5.181-2.972 44.404 0 88.808 0 133.212 0s88.808 0 133.212 0c-1.414 3.414-2.829 6.829-4.243 10.243-38.461-35.987-40.983-96.207-25.605-143.493 13.711-42.159 45.473-79.335 90.064-89.148 23.942-5.27 48.183-0.663 71.531 5.346 21.39 5.505 42.182 13.428 61.842 23.484 37.599 19.232 70.008 47.423 94.733 81.597 25.809 35.67 42.038 77.746 49.941 120.893 9.335 50.956 7.107 104.94-18.569 151.047-5.862 10.528-13.069 20.518-21.279 29.342-7.009 7.534-14.012 11.482-24.263 12.483-12.237 1.195-39.275-5.72-28.677-23.313 2.407-3.995 6.763-6.24 10.28-9.138 4.077-3.359 7.841-7.085 11.387-10.995 7.082-7.807 12.76-16.783 17.47-26.186 10.903-21.77 14.94-46.521 14.948-70.678 0.008-26.474-4.972-53.281-12.606-78.568-6.586-21.817-16.141-42.621-28.537-61.746-21.863-33.73-53.195-60.11-89.126-77.806-17.015-8.38-35.059-14.564-53.465-19.068-18.431-4.51-36.986-7.761-55.276-1.112-29.318 10.658-45.951 42.228-52.348 70.941-6.772 30.4-4.201 74.627 27.332 90.715 1.852 0.944 2.972 3.161 2.972 5.181 0 15.981 0 31.962 0 47.943 0 3.271-2.729 6-6 6-40.129 0-80.258 0-120.387 0-58.472 0-116.943 0-175.415 0-7.723 0-15.445 0-23.167 0-2.066 0-4.176-1.132-5.181-2.972C71.288 449.198 61.1 405.838 58.836 363.124c-2.532-47.778 9.225-94.861 35.138-135.199-0.202 1.541-0.403 3.082-0.605 4.623-8.234-47.685 2.747-96.658 31.972-135.441 26.84-35.618 66.96-59.99 111.015-67.103 37.685-6.083 76.509 0.536 110.162 18.482 33.146 17.676 59.958 46.724 75.604 80.787-1.727-0.99-3.454-1.981-5.181-2.972 48.005 0 96.01 0 144.015 0 25.978 0 51.956 0 77.934 0-1.727 0.99-3.454 1.981-5.181 2.972 19.84-43.185 56.899-76.528 101.696-92.202 44.465-15.559 94.488-11.223 136.228 10.162 39.462 20.219 69.662 55.985 84.318 97.655 6.759 19.216 10.493 40.727 9.314 61.125-0.727 12.563-3.639 25.031-6.838 37.158-9.313 35.308-22.685 69.602-36.226 103.46-15.832 39.584-32.792 78.713-49.947 117.739-17.105 38.912-35.078 77.535-50.89 117-2.841 7.09-14.452 3.999-11.572-3.19 11.863-29.608 25.077-58.685 37.974-87.851 16.921-38.267 33.809-76.552 49.901-115.177 15.142-36.344 29.854-72.992 41.904-110.496 4.539-14.128 8.699-28.439 11.554-43.014 2.742-14.002 2.819-28.499 0.66-43.421-6.329-43.741-31.021-83.601-67.09-109.059-37.78-26.666-86.017-35.606-130.938-24.959-48.534 11.504-88.969 46.027-109.688 91.125-0.857 1.866-3.229 2.972-5.181 2.972-48.005 0-96.01 0-144.014 0-25.978 0-51.956 0-77.934 0-1.952 0-4.324-1.105-5.181-2.972-19.788-43.084-57.136-75.94-102.722-89.283-44.616-13.058-93.406-5.447-132.455 19.459-37.256 23.763-62.966 62.775-71.396 105.986-2.29 11.735-3.037 23.744-2.659 35.683 0.235 7.446 1.146 14.849 2.412 22.184 0.619 3.583-1.462 5.933-3.254 8.816-2.04 3.283-3.955 6.643-5.817 10.029-13.616 24.757-21.916 52.427-24.548 80.535-2.665 28.443 0.31 57.621 6.523 85.422 5.169 23.127 13.035 45.873 24.414 66.699-1.727-0.991-3.454-1.981-5.181-2.972 40.129 0 80.258 0 120.387 0 58.472 0 116.943 0 175.415 0 7.723 0 15.445 0 23.167 0-2 2-4 4-6 6 0-15.981 0-31.962 0-47.943 0.991 1.727 1.981 3.454 2.972 5.181-27.17-13.861-36.374-46.481-36.232-74.891 0.16-32.125 11.614-66.022 34.298-89.242 10.97-11.229 25.12-19.364 40.549-22.465 19.857-3.99 40.543 1.141 59.717 6.402 37.692 10.344 73.08 28.759 102.285 54.824 32.818 29.289 55.561 68.063 68.432 109.895 14.832 48.205 20.112 103.824-0.215 151.209-8.392 19.562-21.164 37.088-38.099 50.098-1.394 1.071-3.364 2.062-4.374 3.505-0.64 0.913-0.503 1.449-0.601 0.999-0.112-0.522 0.239 0.465 0.712 0.814 1.343 0.992 2.849 1.605 4.418 2.121 6.579 2.158 15.218 2.402 21.557-0.671 4.344-2.106 7.906-6.754 11.013-10.328 4.074-4.687 7.727-9.7 11.139-14.884 6.714-10.202 12.081-21.253 16.256-32.718 9.106-25.012 12.04-51.772 10.965-78.259-3.574-88.074-46.882-173.94-121.678-222.109-18.071-11.638-37.583-20.908-57.865-27.979-22.372-7.799-47.27-14.785-71.104-14.347-45.02 0.828-80.03 34.326-95.919 74.416-17.7 44.659-17.913 105.147 19.513 140.166 3.875 3.625 0.862 10.243-4.243 10.243-44.404 0-88.808 0-133.212 0s-88.808 0-133.212 0c-1.902 0-4.388-1.098-5.181-2.972C92.127 408.155 83.95 353.506 95.712 303.65c3.287-13.931 8.431-27.403 14.747-40.229 3.076-6.246 6.59-12.268 10.347-18.126 4.45-6.94 4.717-14.035 3.442-21.939-3.877-24.052-1.376-48.779 7.176-71.589 15.759-42.029 51.421-74.467 94.485-86.805 46.444-13.307 97.042-0.636 132.983 31.166 8.991 7.955 16.775 17.248 23.478 27.188 3.268 4.846 6.139 9.948 8.754 15.171 2.813 5.618 5.183 10.865 10.393 14.724 7.179 5.315 15.127 5.052 23.435 5.052 24.916 0 49.832 0 74.748 0 31.768 0 63.536 0 95.304 0 10.94 0 21.881 0 32.821 0 5.881 0 12.156 0.52 17.896-0.918 12.887-3.225 16.649-14.984 22.409-25.343 5.854-10.531 13.286-20.238 21.601-28.938 16.501-17.27 37.587-29.889 60.301-37.073 44.789-14.169 94.077-3.706 130.581 25.235 33.343 26.437 55.274 70.849 52.715 113.776-0.852 14.293-4.977 28.483-9.06 42.123-5.881 19.643-12.921 38.939-20.209 58.097-17.112 44.986-36.133 89.248-55.409 133.34-9.545 21.832-19.219 43.605-28.837 65.404-5.777 13.092-11.537 26.192-17.195 39.336-4.513 10.484-10.636 21.615-12.807 32.871-0.919 4.765-0.21 10.355-0.208 15.153 0.003 7.987 0.005 15.975 0.008 23.962 0.001 4.713-0.077 9.434 0.051 14.146 0.164 6.081 3.196 12.228 4.425 18.179 1.32 6.394 1.899 13.124 0.779 19.59-4.219 24.372-33.182 29.96-53.853 30.466-22.061 0.539-44.552-4.334-65.951-9.164-12.957-2.924-25.821-6.271-38.59-9.927-3.968-1.136-7.925-2.311-11.86-3.553-1.642-0.519-4.216-1.002-5.616-2.051-2.177-1.63-3.548-3.962-2.757-6.776 0.001-0.004 0.002-0.008 0.003-0.012 1.397 2.46 2.794 4.92 4.191 7.381-17.616-5.009-34.985-12.647-48.193-25.658 1.414 0.586 2.828 1.171 4.242 1.757-0.208 0.011-0.415 0.021-0.623 0.032 1.414-0.586 2.828-1.171 4.242-1.757-5.275 5.375-10.531 12.043-7.902 19.91 3.242 9.703 16.808 15.875 25.171 19.817 18.012 8.489 38.113 13.188 57.433 17.605 20.087 4.592 40.452 8.359 60.916 10.809 17.272 2.067 34.606 2.188 51.621-1.947 13.97-3.395 27.703-10.273 36.287-22.169 9.062-12.559 10.864-28.203 9.64-43.26-0.382-4.688-1.208-9.318-2.18-13.915-0.562-2.657-1.509-5.284-1.509-8.018 0-5.057 0-10.113 0-15.169 0-10.61 0-21.221 0-31.831C809.578 572.038 821.578 572.038 821.578 579.776z"  horiz-adv-x="1024" />

    
    <glyph glyph-name="jinkouchongdiaoyinpin" unicode="&#58922;" d="M301.966222 541.720889M457.386667 55.889778 32.369778 607.598222l842.069333-0.113778L457.386667 55.889778zM119.125333 564.931556l337.92-438.727111 331.605333 438.613333L119.125333 564.931556zM175.225651 793.474543l271.685404-430.592853-36.0832-22.766933-271.685404 430.592853 36.0832 22.766933ZM803.498667 433.518222c-102.001778 0-185.002667 82.944-185.002667 184.945778 0 101.944889 83.000889 184.945778 185.002667 184.945778s184.945778-82.944 184.945778-184.945778C988.444444 516.462222 905.500444 433.518222 803.498667 433.518222zM803.498667 760.743111c-78.506667 0-142.336-63.829333-142.336-142.279111 0-78.449778 63.829333-142.279111 142.336-142.279111 78.449778 0 142.279111 63.829333 142.279111 142.279111C945.777778 696.913778 881.948444 760.743111 803.498667 760.743111zM437.532444 127.342222l42.666667 0 0-309.418667-42.666667 0 0 309.418667ZM320.568889-160.8l276.48 0 0-42.666667-276.48 0 0 42.666667Z"  horiz-adv-x="1024" />

    
    <glyph glyph-name="quxiao" unicode="&#58978;" d="M511.104 896C228.821333 896 0 667.178667 0 384.896c0-282.282667 228.821333-511.104 511.104-511.104 282.282667 0 511.104 228.842667 511.104 511.104C1022.208 667.178667 793.386667 896 511.104 896zM511.104-2.496c-213.973333 0-387.434667 173.44-387.434667 387.413333 0 213.952 173.44 387.413333 387.434667 387.413333 213.952 0 387.392-173.44 387.392-387.413333C898.496 170.944 725.056-2.496 511.104-2.496zM236.437333 432.085333l549.333333 0 0-96.874667-549.333333 0 0 96.874667Z"  horiz-adv-x="1024" />

    
    <glyph glyph-name="gengduo1" unicode="&#58935;" d="M479.25369 424.871873 182.041568 424.871873c-52.789297 0-95.737458 42.947138-95.737458 95.737458L86.30411 798.609902l296.306496 0c53.289694 0 96.643084-42.947138 96.643084-95.737458L479.25369 424.871873zM147.702482 737.211531l0-216.6022c0-18.934235 15.403828-34.339086 34.339086-34.339086l235.81375 0L417.855318 702.872444c0 18.612916-16.140609 34.339086-35.244712 34.339086L147.702482 737.211531zM382.609583-52.780855 86.30411-52.780855 86.30411 225.219717c0 52.789297 42.947138 95.737458 95.737458 95.737458l297.212122 0 0-278.000572C479.25369-9.832693 435.899276-52.780855 382.609583-52.780855zM147.702482 8.617517l234.908124 0c19.104103 0 35.244712 15.725146 35.244712 34.339086L417.855318 259.55778 182.041568 259.55778c-18.934235 0-34.339086-15.404852-34.339086-34.339086L147.702482 8.617517zM841.957409 424.871873 544.745287 424.871873 544.745287 702.872444c0 52.789297 43.354414 95.737458 96.643084 95.737458l296.306496 0 0-278.000572C937.694867 467.820034 894.746706 424.871873 841.957409 424.871873zM606.143659 486.270245l235.81375 0c18.934235 0 34.339086 15.404852 34.339086 34.339086L876.296495 737.211531 641.388371 737.211531c-19.105127 0-35.244712-15.725146-35.244712-34.339086L606.143659 486.270245zM937.694867-52.780855 641.388371-52.780855c-53.28867 0-96.643084 42.948161-96.643084 95.737458L544.745287 320.956152l297.212122 0c52.789297 0 95.737458-42.948161 95.737458-95.737458L937.694867-52.780855zM606.143659 259.55778l0-216.6022c0-18.612916 16.139585-34.339086 35.244712-34.339086l234.908124 0L876.296495 225.219717c0 18.934235-15.404852 34.339086-34.339086 34.339086L606.143659 259.558803z"  horiz-adv-x="1024" />

    
    <glyph glyph-name="iconset0143" unicode="&#58923;" d="M596.992 563.2c-13.312 8.192-25.6 17.408-38.912 21.504-13.312 4.096-29.696 8.192-47.104 8.192-21.504 0-38.912-4.096-55.296-8.192-17.408-8.192-29.696-17.408-43.008-25.6-13.312-17.408-21.504-29.696-29.696-47.104-4.096-17.408-8.192-33.792-8.192-55.296l0-4.096 47.104 0 0 4.096c0 13.312 0 25.6 4.096 37.888 4.096 13.312 8.192 21.504 17.408 29.696 8.192 8.192 17.408 17.408 25.6 21.504 13.312 4.096 25.6 8.192 37.888 8.192 8.192 0 21.504 0 29.696-4.096s17.408-8.192 25.6-13.312c8.192-4.096 13.312-13.312 17.408-21.504s4.096-17.408 4.096-29.696-4.096-25.6-8.192-38.912c-8.192-13.312-17.408-21.504-25.6-29.696-13.312-13.312-21.504-21.504-29.696-29.696-8.192-8.192-17.408-17.408-21.504-29.696-4.096-8.192-8.192-21.504-13.312-33.792-4.096-13.312-4.096-25.6-4.096-43.008l0-4.096 47.104 0L528.384 281.6c0 17.408 0 29.696 4.096 38.912 0 8.192 4.096 17.408 4.096 21.504 4.096 4.096 8.192 13.312 13.312 17.408 8.192 8.192 17.408 17.408 29.696 25.6 13.312 13.312 25.6 29.696 37.888 43.008 8.192 17.408 13.312 33.792 13.312 55.296 0 17.408-4.096 33.792-8.192 47.104C618.496 541.696 610.304 555.008 596.992 563.2zM478.208 175.104l59.392 0 0 68.608-59.392 0L478.208 175.104zM503.808 840.704C251.904 840.704 47.104 635.904 47.104 384s204.8-456.704 456.704-456.704 456.704 204.8 456.704 456.704C964.608 635.904 759.808 840.704 503.808 840.704zM503.808-33.792C273.408-33.792 84.992 153.6 84.992 384S273.408 801.792 503.808 801.792 921.6 614.4 921.6 384 734.208-33.792 503.808-33.792z"  horiz-adv-x="1024" />

    
    <glyph glyph-name="weibiaoti12" unicode="&#58890;" d="M584.533 618.667h256l-298.667 256v-213.333c0-25.6 17.067-42.667 42.667-42.667zM601.6-17.067h-4.267l-34.133-89.6 89.6 25.6h4.267l226.133 196.267-59.733 64zM840.533 576h-298.667c-25.6 0-42.667 17.067-42.667 42.667v256h-341.333c-46.933 0-85.333-38.4-85.333-85.333v-810.667c0-46.933 38.4-85.333 85.333-85.333h247.467l435.2 430.933 0 251.733zM563.2 320h-341.333c-12.8 0-21.333 8.533-21.333 21.333 0 12.8 8.533 21.333 21.333 21.333h341.333c12.8 0 21.333-8.533 21.333-21.333-0-12.8-12.8-21.333-21.333-21.333zM691.2 448h-469.333c-12.8 0-21.333 8.533-21.333 21.333 0 12.8 8.533 21.333 21.333 21.333h469.333c12.8 0 21.333-8.533 21.333-21.333-0-12.8-12.8-21.333-21.333-21.333zM968.533 209.067l-34.133 42.667c-4.267 4.267-8.533 4.267-12.8 0l-42.667-34.133c-4.267-4.267-4.267-8.533 0-12.8l34.133-42.667c4.267-4.267 8.533-4.267 12.8 0l42.667 34.133c4.267-0 4.267 8.533 0 12.8z"  horiz-adv-x="1024" />

    
    <glyph glyph-name="weibiaoti14" unicode="&#58912;" d="M845.6 546.4l-384-384c-14.4-14.4-34.4-17.6-52-10.4-5.6 2.4-11.2 5.6-16 10.4L178.4 377.6c-18.4 18.4-18.4 49.6 0 68 18.4 18.4 49.6 18.4 68 0L428 264l350.4 350.4c18.4 18.4 48.8 18.4 68 0C864.8 595.2 864.8 564.8 845.6 546.4z"  horiz-adv-x="1024" />

    
    <glyph glyph-name="tianjiagouwuche" unicode="&#58901;" d="M512-128C229.233778-128 0 101.233778 0 384 0 666.766222 229.233778 896 512 896 794.766222 896 1024 666.766222 1024 384 1024 101.233778 794.766222-128 512-128ZM711.111111 412.444444 540.444444 412.444444 540.444444 583.111111 483.555556 583.111111 483.555556 412.444444 312.888889 412.444444 312.888889 355.555556 483.555556 355.555556 483.555556 184.888889 540.444444 184.888889 540.444444 355.555556 711.111111 355.555556 711.111111 412.444444Z"  horiz-adv-x="1024" />

    
    <glyph glyph-name="zhuye1" unicode="&#58932;" d="M918.108275 313.859523l-94.959745 0 0-282.532795c0-25.795503-10.417257-49.28959-27.16264-66.307172-16.724917-17.004279-39.789215-27.564799-65.107857-27.564799L605.361341-62.545242 605.361341 126.092046c0 26.084075-10.483772 49.795103-27.368324 66.948785-16.911158 17.193591-40.276309 27.866674-65.98176 27.866674-25.713638 0-49.078789-10.673084-65.991993-27.874861-16.881482-17.153682-27.368324-40.865733-27.368324-66.941622l0-188.637288L293.14448-62.546266c-25.329898 0-48.38294 10.56052-65.107857 27.557636-16.753569 17.042141-27.16571 40.510646-27.16571 66.315358L200.870914 313.859523 98.365308 313.859523c-2.681062 2.62785-5.468548 5.257747-8.090259 7.946996-19.102057 19.525706-28.492938 44.500517-28.401864 69.579705 0.091074 25.039279 9.601682 50.080605 28.282137 69.842695C201.702861 575.70823 322.135768 688.245306 436.774715 800.377152c20.463054 20.002566 47.876404 30.0412 75.18333 30.072923 27.298739 0.029676 54.698786-9.950629 75.130118-29.921473l53.254901-52.084239c0.945535 20.069081 9.41237 38.259372 22.595624 51.66059 13.95892 14.193257 33.214473 23.008017 54.358025 23.008017l0.415462-0.074701c21.022803-0.11461 40.172955-8.884344 54.016241-22.933315 13.93743-14.142092 22.624277-33.614585 22.624277-55.045687 0-48.678676-0.655939-97.606015-0.943488-146.343019l137.663336-134.633327 3.088338-3.149736c18.544355-19.715017 27.956725-44.665269 27.978215-69.600171 0.031722-25.012673-9.372461-49.9179-28.401864-69.37709l-8.460696-8.095375L918.108275 313.860547 918.108275 313.859523zM804.642037 351.628732l105.779162 0c9.94756 11.586896 14.880919 25.667589 14.856359 39.703257-0.013303 15.407921-5.975085 30.991852-17.721617 43.479257-48.849568 49.915853-101.016695 98.918917-151.099347 147.867746l0.959861 162.046676-0.077771 0.333598c0 11.027148-4.471848 21.060665-11.640108 28.332279-7.242961 7.352455-17.198707 11.94403-28.061103 12.026918l-0.325411-0.074701c-11.05887 0-21.092387-4.586458-28.343535-11.952216-7.213285-7.334036-11.701506-17.494443-11.701506-28.665877l0-84.587514L561.495274 773.379265c-13.279445 12.977569-31.370475 19.47454-49.53723 19.451004-18.153452-0.023536-36.257785-6.563486-49.592488-19.602454L116.699885 435.046606c-11.859096-12.57848-17.910928-28.220738-17.96414-43.661406-0.045025-14.06739 4.820796-28.146037 14.72333-39.756469l124.426871 0 0-320.302003c0-15.432481 6.209422-29.459962 16.180518-39.60502 10.008958-10.174734 23.848151-16.497743 39.076994-16.497743l88.494497 0L381.637953 126.092046c0 36.447097 14.691607 69.608358 38.349423 93.654007 23.629163 24.02109 56.210209 38.933731 92.01467 38.933731 35.812647 0 68.40188-14.912641 92.022857-38.925544 23.658839-24.044626 38.349423-57.20691 38.349423-93.66117l0-150.868079 88.502683 0c15.22168 0 29.065989 6.331195 39.074947 16.505929 9.980305 10.136871 16.180518 24.165376 16.180518 39.596833L786.132474 351.628732 804.642037 351.628732z"  horiz-adv-x="1024" />

    
    <glyph glyph-name="xiaoxi" unicode="&#59151;" d="M832 704 256 704C185.6 704 128 646.4 128 576l0-448c0-70.4 57.6-128 128-128l576 0c70.4 0 128 57.6 128 128L960 576C960 646.4 902.4 704 832 704zM256 640l576 0c6.4 0 12.16-1.92 17.92-3.84-3.2-1.28-5.76-3.2-8.32-5.76L544 333.44 246.4 631.04C243.84 633.6 241.28 634.88 238.08 636.16 243.84 638.08 249.6 640 256 640zM896 128c0-35.2-28.8-64-64-64L256 64c-35.2 0-64 28.8-64 64L192 576c0 6.4 1.92 12.16 3.84 17.92C197.12 590.72 198.4 588.16 200.96 585.6l318.72-318.72C526.08 260.48 535.04 257.28 544 257.92c8.96-0.64 17.92 2.56 24.32 8.96l318.72 318.72c2.56 2.56 3.84 5.12 5.76 8.32C894.08 588.16 896 582.4 896 576L896 128z"  horiz-adv-x="1024" />

    
    <glyph glyph-name="quxiao1" unicode="&#58913;" d="M842.947 117.883l-266.1 266.104 266.098 266.13c8.676 8.675 13.447 20.208 13.439 32.478-0.008 12.233-4.773 23.715-13.415 32.332-8.655 8.678-20.15 13.45-32.385 13.458-12.287 0-23.808-4.772-32.475-13.435l-266.092-266.093-266.137 266.093c-8.663 8.663-20.176 13.435-32.416 13.435-12.24 0-23.752-4.771-32.414-13.433-8.66-8.637-13.429-20.124-13.437-32.357-0.008-12.269 4.763-23.803 13.437-32.477l266.135-266.13-266.136-266.106c-8.664-8.663-13.436-20.173-13.436-32.415 0-12.24 4.773-23.753 13.437-32.417 8.662-8.663 20.173-13.433 32.413-13.433 12.241 0 23.754 4.771 32.416 13.433l266.134 266.101 266.102-266.101c8.663-8.663 20.186-13.433 32.443-13.433 12.265 0.008 23.749 4.772 32.369 13.412 17.887 17.889 17.893 46.98 0.018 64.854z"  horiz-adv-x="1024" />

    
    <glyph glyph-name="hezi401" unicode="&#59027;" d="M146.329205 322.799126l0-150.617369c0-8.838296 3.140527-16.534582 11.544941-19.191084l442.141956-139.754974c1.948375-0.595564 3.326768-0.893346 5.325285-0.893346 4.940522 0 9.496282 1.799996 13.244652 5.189186l246.189052 223.596498c4.208858 3.823072 6.121418 9.235338 6.121418 14.921851L870.896508 421.421284l61.546751-21.202904c2.322905-0.794086 4.854565-1.192152 7.201006-1.192152 5.64865 0 11.195993 2.27174 15.305591 6.541997 5.821589 6.045693 6.567579 14.648628 3.216251 23.183002l-87.268576 186.187493c0 0.099261 0 0.211824 0 0.322341 0 2.694365-0.583285 5.189186-2.111081 7.572466-1.727341 4.033873-4.085038 7.534604-8.020674 9.743922-0.607844 0.335644-1.004887 0.471744-1.62501 0.744967-7.30129 5.250584-15.033391 8.615215-16.920368 9.18008L482.270397 754.693694c-5.598508 1.713015-11.507078 1.11745-16.671705-1.589195L181.298648 604.188888c-22.221094-11.644201-31.344892-20.029172-35.031864-25.932626-1.886977-2.14792-3.215228-4.6366-4.033873-7.348362-1.489934-2.111081-2.818185-4.344958-3.823072-6.80294l-71.999824-177.727821c-3.686972-9.100262-3.38919-19.402909 0.781806-28.29851 4.183276-8.882298 14.486946-15.670911 23.859407-18.638499L146.329205 322.799126zM171.752224 314.779476l332.726987-105.753579c3.450589-1.067308 5.760191-1.638313 9.359158-1.638313 15.653515 0 28.986171 10.526751 33.30657 25.596981l34.783201 122.30658 10.141988-312.435848L171.752224 176.080553 171.752224 314.779476zM845.472466 258.408607 614.352621 48.61651l-10.227945 404.540569 241.34779 152.23624L845.472466 258.408607zM870.896508 448.334237 870.896508 557.401282l60.255339-129.953747L870.896508 448.334237zM476.236983 729.965499l347.871919-108.409059L589.302085 473.558735c-15.479553 3.711532-68.722174 17.552771-136.762827 35.416628L192.743304 581.47149c0.124843 0.062422 0.248663 0.1361 0.372483 0.192382L476.236983 729.965499zM89.982896 376.824577l71.999824 180.620707c0.347924 0.874927 0.844228-7.441483 1.402953 5.263887l8.367575 0 0-4.52506c127.117143-36.210713 226.377844-60.752666 289.538349-77.331249l111.74913-31.543414c2.557242-0.713244 4.047176-2.38942 5.338588-4.697999 1.302669-2.321882 1.302669-5.015224 0.571005-7.572466l-56.70549-197.026352c-1.476631-5.188162-7.225565-8.416693-12.562107-6.728238L96.213807 363.683279c-2.656503 0.844228-4.803399 2.706645-5.995551 5.227048C89.027128 371.44301 88.940147 374.247892 89.982896 376.824577z"  horiz-adv-x="1024" />

    
    <glyph glyph-name="dianzan" unicode="&#58969;" d="M884.875894 472.856747 646.970506 472.856747c92.185562 340.464205-63.516616 357.853247-63.516616 357.853247-65.993017 0-52.312436-52.182476-57.3031-60.881602 0-166.502152-176.849824-296.971645-176.849824-296.971645l0-472.171899c0-46.607504 63.516616-63.393819 88.433098-63.393819l357.452111 0c33.641191 0 61.036122 88.224344 61.036122 88.224344 88.434122 300.70569 88.434122 390.177444 88.434122 390.177444C944.657442 477.820805 884.875894 472.856747 884.875894 472.856747L884.875894 472.856747 884.875894 472.856747zM884.875894 472.856747M251.671415 472.700181 109.214912 472.700181c-29.420053 0-29.873378-28.89612-29.873378-28.89612l29.420053-476.202703c0-30.309306 30.361495-30.309306 30.361495-30.309306L262.420223-62.707948c25.686009 0 25.458835 20.049638 25.458835 20.049638L287.879058 436.588729C287.879058 473.162716 251.671415 472.700181 251.671415 472.700181L251.671415 472.700181 251.671415 472.700181zM251.671415 472.700181"  horiz-adv-x="1024" />

    
    <glyph glyph-name="jiudian" unicode="&#58965;" d="M895.738801 831.6279 448.198905 831.6279c0 0-0.026606-565.588499 0-767.248382-32.18912-0.01842-64.177672-0.073678-64.177672 0l0.39295 511.421832L128.466883 575.801351l0-639.20617c0-0.096191 767.271918 0 767.271918 0C895.885134-63.40482 895.738801 831.6279 895.738801 831.6279zM192.916754 448.59518l126.903272 0c-0.025583-29.443589-0.040932-76.391854-0.046049-128.621403L192.869682 319.973778C192.891172 372.203326 192.907545 419.151591 192.916754 448.59518zM192.662975 64.378495c0.053212 0 0.103354 57.313334 0.145309 128.390135l126.97081 0c0.014326-71.076802 0.048095-128.390135 0.101307-128.390135L192.662975 64.378495zM704.362122 319.974801c0.00614 42.250266 0.011256 86.136799 0.014326 128.621403l127.096676 0c-0.007163-42.484603-0.01228-86.371136-0.01535-128.621403L704.362122 319.974801zM513.160429 448.59518l126.907365 0c-0.002047-42.484603-0.002047-86.371136 0.001023-128.621403L513.122567 319.973778C513.13587 362.224044 513.149173 406.1116 513.160429 448.59518zM704.379519 575.801351c-0.002047 61.252039-0.013303 109.097744-0.036839 128.621403l127.238916 0c-0.030699-19.523659-0.057305-67.369364-0.077771-128.621403L704.379519 575.801351zM640.146589 704.42173c-0.027629-19.523659-0.049119-67.369364-0.062422-128.621403L513.192152 575.800327c0.014326 61.252039 0.023536 109.097744 0.027629 128.621403L640.146589 704.42173zM512.957815 64.378495c0.041956 0 0.080841 52.845579 0.115634 128.390135l127.013789 0c0.017396-75.54558 0.047072-128.390135 0.089028-128.390135L512.957815 64.378495zM704.316074 64.378495c0 0 0.01228 52.845579 0.025583 128.390135L831.460846 192.768631c0.00921-75.54558 0.031722-128.390135 0.073678-128.390135C831.5335 64.378495 704.316074 64.233186 704.316074 64.378495z"  horiz-adv-x="1024" />

    
    <glyph glyph-name="hothuorererexiao" unicode="&#59034;" d="M744.96 468.138667c-4.778667 17.237333-6.485333 32.597333-6.656 46.592 0 48.64 18.602667 72.704 20.992 75.946667 5.461333 7.68 7.168 17.749333 2.901333 26.112-7.509333 14.506667-24.064 15.018667-27.136 15.018667-20.992 0.341333-116.736-5.461333-148.138667-103.594667-5.802667-18.602667-8.021333-36.352-8.533333-52.394667-12.458667 18.773333-23.04 45.738667-23.04 84.138667l0 3.925333c2.048 108.032 24.576 172.202667 24.064 172.544 3.072 9.045333 0.853333 19.114667-5.802667 25.941333-6.656 6.826667-16.554667 9.557333-25.770667 6.826667-1.536-0.682667-187.733333-53.930667-196.096-242.517333-0.341333-10.410667-0.512-20.48-0.512-29.866667 2.048-46.08 5.290667-80.554667 9.898667-106.496-20.138667 18.602667-37.546667 47.104-37.034667 89.941333 0 8.874667 2.048 28.842667 2.048 28.842667 1.194667 7.338667-0.512 15.189333-5.973333 21.162667-9.557333 10.410667-25.770667 11.264-36.181333 1.706667l-0.170667-0.170667c-2.56-2.389333-82.261333-75.434667-82.432-213.504 0-11.264 0.512-22.869333 1.706667-34.816 15.872-160.085333 158.378667-285.354667 318.634667-285.696 2.901333 0 5.632 0 8.362667 0.170667 162.986667 5.290667 290.645333 138.922667 291.498667 281.088l0 2.218667 0 0C820.906667 427.690667 752.64 417.109333 744.96 468.138667zM770.901333 279.04c0.853333-110.762667-106.666667-226.986667-241.664-229.888-2.389333-0.170667-4.608-0.170667-6.997333-0.170667-133.290667-0.512-255.317333 107.690667-267.776 239.445333-1.024 10.410667-1.536 20.48-1.536 30.037333 0 49.664 11.946667 88.405333 25.770667 116.906667 25.258667-103.936 129.877333-127.488 131.413333-127.658667 0 0 2.048-0.512 5.290667-0.682667 13.141333-0.341333 24.234667 9.728 25.770667 22.698667 1.194667 10.581333-12.629333 25.770667-12.629333 25.770667-5.802667 7.168-25.941333 41.130667-25.770667 141.312 0 8.874667 0.170667 18.261333 0.512 28.16 1.877333 95.744 68.266667 148.992 114.858667 174.762667-6.314667-32.426667-12.629333-78.336-13.653333-134.826667 0-1.536 0-3.242667 0-4.949333 0-125.952 93.696-168.618667 97.109333-169.472 9.386667-3.925333 19.968-2.048 27.477333 4.778667 7.338667 6.826667 10.069333 17.408 6.826667 26.965333 0 0-6.314667 18.602667-6.314667 46.08 0 13.824 1.877333 29.184 6.485333 44.885333 11.093333 36.693333 36.864 53.418667 60.074667 60.928-4.949333-16.213333-8.874667-36.010667-8.874667-59.392 0-18.432 2.389333-38.741333 8.533333-60.416 33.621333-96.597333 73.728-46.592 75.264-173.738667L771.072 279.04z"  horiz-adv-x="1024" />

    
    <glyph glyph-name="buxianshimima" unicode="&#58998;" d="M889.104707 508.311237l70.419839 75.851549-19.678178 18.260899-70.236668-75.641771C692.654476 344.093105 514.610454 349.682403 512.432859 349.472626 282.437627 350.600309 86.775342 583.349257 84.820827 585.711048l-20.688181-17.158798c4.218068-5.081739 57.688887-68.527746 140.991128-129.708154l-77.419254-94.330412 20.780279-17.054421 78.625732 95.801926c45.570895-31.146371 98.579179-60.231803 156.648736-79.054497l-34.639938-117.182886 25.764803-7.608282 34.744315 117.550253c32.855292-8.635681 66.927295-14.161534 102.120842-14.33345 0.603751-0.052189 2.295276-0.105401 4.972245-0.105401 13.709233 0 53.500495 1.684362 108.149139 18.088984l30.854728-175.038572 26.447349 4.670369L650.64264 349.098095c48.557926 17.454534 106.129132 46.603411 166.388565 94.158497l55.990199-100.527554 23.481807 13.065574-58.413388 104.879676C854.996888 475.131557 872.018563 490.670461 889.104707 508.311237z"  horiz-adv-x="1024" />

    
    <glyph glyph-name="wangjimima" unicode="&#58907;" d="M868.699544 749.122533C767.986156 849.840956 652.052888 896 512 896c-140.053895 0-255.981121-46.159044-356.701558-146.877467C54.586061 648.408137 7.909484 532.485946 7.909484 392.422989c0-140.576462 46.67557-256.502681 147.388958-357.218083C256.012838-65.512511 371.946105-111.673569 512-111.673569c140.053895 0 255.979107 46.161058 356.700551 146.878474 100.702313 100.714395 147.388958 216.641621 147.388958 357.218083C1016.088502 532.485946 969.401857 648.408137 868.699544 749.122533M570.146864 78.754137c-12.858764-12.362376-28.856954-18.374409-48.264414-18.374409-18.36132 0-33.330487 6.562792-46.160051 18.374409-13.933096 12.84064-19.412494 28.839838-19.412494 47.198136 0 18.882879 6.297985 34.62029 19.412494 47.212233 13.109475 12.587915 27.797725 19.935061 46.160051 19.935061 20.983215 0 36.853533-7.213232 49.834128-19.935061 12.719815-12.460042 18.883886-28.329353 18.883886-47.212233C590.60147 108.12661 584.04774 92.11533 570.146864 78.754137M626.266894 363.575096c-33.907425-31.636928-48.015717-54.619791-59.27456-90.744348-8.687292-27.87022-30.955276-47.824411-66.613651-44.067771-18.895969 1.998641-29.901081 9.96602-35.671465 20.983215-4.723237 13.115516-7.345132 26.231032-6.817531 40.390674 0.523573 14.16367 7.241424 35.723822 21.504774 62.948637 14.58857 27.858137 36.278609 53.93109 69.768181 83.407271 71.424486 62.846943 82.351062 107.525885 44.06173 146.87344-28.849906 20.461655-85.547881 28.927435-120.125883 6.818538-42.532291-27.202663-57.174225-53.504176-62.944609-77.104252-9.967027-25.173816-16.720118-57.942469-69.769188-44.065757-15.137315 3.963049-23.934357 15.24203-26.230025 33.57113-1.902988 15.24203-0.853828 34.043353 5.245804 58.754008 12.796338 51.872037 71.340916 140.574448 216.641621 140.574448 110.686457 0 201.455976-72.911636 204.051693-158.942816C742.743872 455.372632 663.185873 398.026232 626.266894 363.575096"  horiz-adv-x="1024" />

    
    <glyph glyph-name="fujin" unicode="&#58891;" d="M502.295987 111.92027800000005c2.943029-3.496637 7.693216-5.978155 16.387225-5.978155l0.407276 0c10.656711 0 14.32117 3.916193 17.651009 8.091282 40.948621 51.219545 178.542372 226.799446 230.147704 322.44276 21.095457 39.090297 29.696346 73.78447 29.696346 119.827109 0 152.040788-124.661208 275.67562-277.902334 275.67562S240.781902 708.9089280000001 240.781902 557.7973010000001c0-39.904849 9.311063-81.355913 26.920116-119.371738C314.255287 337.938941 482.829634 135.135002 502.295987 111.92027800000005zM518.684236 789.0123140000001c129.661082 0 235.147578-104.442724 235.147578-232.810347 0-38.839587-6.888897-66.730821-24.571628-99.464339-43.339064-80.352049-156.215878-228.238214-202.727191-288.089347l-8.256034-10.626012-8.486278 10.437723c-49.132001 60.436464-167.30033 209.407334-203.301266 287.107997-15.020088 32.43062-22.952758 67.638493-22.952758 101.812827C283.535635 687.272141 386.819976 789.0123140000001 518.684236 789.0123140000001zM760.334925 269.28123500000004c-2.547009 1.01205-5.208629 1.523703-7.912204 1.523703-8.819876 0-16.617469-5.27105-19.87363-13.464663-2.119267-5.302773-2.035356-11.105942 0.208754-16.356526 2.254344-5.240351 6.4192-9.289574 11.721973-11.408841 70.478168-28.098965 110.893646-66.584488 110.893646-105.590873 0-69.642127-135.287219-144.20124-336.689229-144.20124S181.995007 54.34190799999999 181.995007 123.98403499999995c0 37.775348 38.391379 75.42483 105.319697 103.304807 5.27105 2.202155 9.373485 6.314823 11.544941 11.597129 2.181689 5.281283 2.171456 11.085476-0.020466 16.356526-3.340071 7.995091-11.095709 13.173021-19.769252 13.173021-2.807952 0-5.563716-0.553609-8.18338-1.64957-84.892459-35.364439-131.644249-86.072331-131.644249-142.781914 0-106.582457 163.125241-186.955996 379.442962-186.955996S898.127198 17.401577999999972 898.127198 123.98403499999995C898.127198 181.39355899999998 847.899236 234.35579499999994 760.334925 269.28123500000004zM518.684236 471.455841c47.148833 0 85.508489 38.359656 85.508489 85.508489s-38.359656 85.508489-85.508489 85.508489-85.508489-38.359656-85.508489-85.508489S471.535403 471.455841 518.684236 471.455841z"  horiz-adv-x="1024" />

    
    <glyph glyph-name="jian" unicode="&#59055;" d="M475.722 351.414l46.918 0 0-96.307-46.918 0 0 96.307ZM808.977 829.978 215.022 829.978c-82.843 0-150-67.157-150-150l0-591.956c0-82.844 67.157-150 150-150l593.954 0c82.844 0 150 67.156 150 150L958.976 679.978C958.977 762.82 891.82 829.978 808.977 829.978zM688.091 669.966c14.815-14.816 34.571-37.041 59.265-66.673-13.195-9.878-25.542-19.755-37.041-29.633-18.134 26.314-37.04 48.539-56.796 66.673C666.676 651.832 678.213 661.709 688.091 669.966zM273.232 600.823c27.974-44.449 51.857-83.149 71.612-116.062-14.816-8.257-30.481-18.945-46.918-32.102-8.257 21.375-31.292 60.886-69.143 118.531C245.22 582.688 260.036 592.566 273.232 600.823zM213.966 205.72c19.755 24.694 37.427 52.667 53.092 83.959 15.626 31.254 30.019 65.015 43.214 101.246 14.816-11.537 29.633-21.415 44.449-29.632-18.135-32.951-36.231-67.523-54.327-103.715-18.135-36.23-31.292-64.204-39.511-83.96C244.41 188.434 228.783 199.122 213.966 205.72zM431.273 435.374l0 39.51 130.878 0 0-39.51L431.273 435.374zM433.743 388.455 564.62 388.455c-1.658-19.755-2.469-49.388-2.469-88.898 0-37.89 0.811-64.204 2.469-79.021L433.743 220.536c1.621 23.035 2.469 49.388 2.469 79.021C436.212 330.81 435.363 360.442 433.743 388.455zM772.05 124.229c-13.196-18.096-29.633-21.376-49.388-9.878-19.756 11.537-46.108 45.299-79.021 101.246-32.951-42.829-70.803-80.642-113.593-113.593-11.536 16.476-23.884 29.633-37.041 39.511 42.79 19.755 85.58 60.886 128.409 123.47-24.694 64.204-38.7 151.443-41.98 261.756L404.11 526.741l0-143.225c3.28-115.251-18.135-209.899-64.204-283.981-13.196 11.537-29.633 20.604-49.388 27.164 27.974 34.571 46.918 77.786 56.796 129.643 9.877 51.857 14.816 109.04 14.816 171.624 0 62.545-0.849 108.653-2.47 138.286l217.307 0c-1.659 29.633-3.318 63.355-4.939 101.245 18.097-1.659 36.192-2.469 54.327-2.469-3.318-13.196-4.938-46.108-4.938-98.776l51.857 0c27.974 0 59.265 0.81 93.837 2.469l0-44.449c-31.292 1.621-61.735 2.47-91.368 2.47l-51.857 0c-1.659-77.4 7.408-149.013 27.164-214.838 26.314 49.389 46.069 103.715 59.265 162.98 16.438-9.877 33.723-17.286 51.857-22.225-8.257-18.135-21.414-47.768-39.51-88.898-18.135-41.169-35.421-76.551-51.857-106.184 26.314-51.047 46.494-80.68 60.5-88.898 13.968-8.219 25.929 12.347 35.807 61.735 8.218-8.258 22.225-16.476 41.979-24.694C797.554 169.489 785.207 142.364 772.05 124.229z"  horiz-adv-x="1024" />

    
    <glyph glyph-name="xinyongqiahuankuan" unicode="&#58933;" d="M869.659331 6.610814 157.320537 6.610814c-50.433646 0-91.324962 40.882106-91.324962 91.323938L65.995575 444.972677l894.987694 0 0-347.037924C960.984293 47.49292 920.092977 6.610814 869.659331 6.610814zM632.211361 244.057761l-36.529985-127.856993 219.180931 0 36.529985 127.856993L632.211361 244.057761zM65.995575 664.152585c0 50.433646 40.891316 91.324962 91.324962 91.324962l712.337771 0c50.433646 0 91.324962-40.891316 91.324962-91.324962l0-91.327008L65.995575 572.825576 65.995575 664.152585z"  horiz-adv-x="1024" />

    
    <glyph glyph-name="fukuanfangshisel" unicode="&#58924;" d="M66.861292 537.205311l890.276393 0 0-137.449465-890.276393 0 0 137.449465ZM877.166305 716.923462 435.369204 716.923462 146.778436 716.923462c-44.060495 0-79.917144-39.660278-79.917144-88.447425l0-61.825091 890.276393 0 0 4.889357 0 7.225565 0 49.655933C957.137685 677.154713 921.281035 716.923462 877.166305 716.923462zM66.861292 139.522939c0-48.677653 35.856649-88.446401 79.917144-88.446401l274.955212 0 455.43368 0c44.113707 0 79.970356 39.659255 79.970356 88.446401l0 230.786247-890.276393 0L66.861292 139.522939zM664.907017 176.412105l166.896124 0c7.659447 0 13.907755-6.247284 13.907755-13.907755 0-7.66047-6.247284-13.908778-13.907755-13.908778L664.907017 148.595572c-7.66047 0-13.908778 6.247284-13.908778 13.908778C650.998239 170.163797 657.245524 176.412105 664.907017 176.412105z"  horiz-adv-x="1024" />

    
    <glyph glyph-name="lianjie" unicode="&#58887;" d="M729.421868 303.03806c-48.383964 0-90.440825-26.126031-113.861234-64.768119L394.33309 358.042815c17.308201 22.50762 28.02017 50.344618 28.02017 80.886215 0 25.245987-7.436366 48.599881-19.651572 68.744687l209.729675 123.097596c22.592554-41.771359 66.267263-70.521147 116.990504-70.521147 73.617671 0 133.512806 59.878762 133.512806 133.512806S803.039539 827.275779 729.421868 827.275779 595.910085 767.39804 595.910085 693.763996c0-10.903328 1.682315-21.366633 4.15974-31.519878L382.027833 534.272515c-24.084535 23.533996-56.92857 38.169321-93.187379 38.169321-73.617671 0-133.512806-59.878762-133.512806-133.512806s59.895135-133.512806 133.512806-133.512806c30.53034 0 58.359152 10.707876 80.878029 28.016077l232.395908-125.803217c-3.651157-12.157901-6.205329-24.77322-6.205329-38.104853 0-73.634044 59.895135-133.512806 133.512806-133.512806s133.512806 59.878762 133.512806 133.512806S803.039539 303.03806 729.421868 303.03806zM729.421868 760.520399c36.81651 0 66.756403-29.955242 66.756403-66.756403s-29.938869-66.756403-66.756403-66.756403c-36.81651 0-66.756403 29.955242-66.756403 66.756403S692.605358 760.520399 729.421868 760.520399zM288.840454 372.17365c-36.81651 0-66.756403 29.955242-66.756403 66.756403s29.938869 66.756403 66.756403 66.756403 66.756403-29.955242 66.756403-66.756403S325.657988 372.17365 288.840454 372.17365zM729.421868 102.768851c-36.81651 0-66.756403 29.955242-66.756403 66.756403 0 36.801161 29.938869 66.756403 66.756403 66.756403 36.81651 0 66.756403-29.955242 66.756403-66.756403C796.178271 132.725116 766.239402 102.768851 729.421868 102.768851z"  horiz-adv-x="1024" />

    
    <glyph glyph-name="dingdan" unicode="&#58911;" d="M762.30656 540.33408 384.67072 540.33408c-9.472 0-17.16736-8.4224-17.16736-18.7904 0-10.37312 7.69024-18.7904 17.16736-18.7904l377.63072 0c9.47712 0 17.16736 8.41728 17.16736 18.7904C779.4688 531.9168 771.77856 540.33408 762.30656 540.33408L762.30656 540.33408zM254.7712 521.54368c0-10.37312 6.72256-18.7904 15.03232-18.7904l45.09696 0c8.30464 0 15.03232 8.41728 15.03232 18.7904 0 10.368-6.72768 18.7904-15.03232 18.7904l-45.09696 0C261.49888 540.33408 254.7712 531.9168 254.7712 521.54368L254.7712 521.54368zM762.30656 333.64992 384.67072 333.64992c-9.472 0-17.16736-8.4224-17.16736-18.79552 0-10.368 7.69024-18.78528 17.16736-18.78528l377.63072 0c9.47712 0 17.16736 8.41728 17.16736 18.78528C779.4688 325.22752 771.77856 333.64992 762.30656 333.64992L762.30656 333.64992zM314.90048 333.64992l-45.09696 0c-8.30464 0-15.03232-8.4224-15.03232-18.79552 0-10.368 6.72256-18.78528 15.03232-18.78528l45.09696 0c8.30464 0 15.03232 8.41728 15.03232 18.78528C329.9328 325.22752 323.20512 333.64992 314.90048 333.64992L314.90048 333.64992zM762.30656 126.96064 384.67072 126.96064c-9.472 0-17.16736-8.4224-17.16736-18.78528 0-10.37312 7.69024-18.79552 17.16736-18.79552l377.63072 0c9.47712 0 17.16736 8.4224 17.16736 18.79552C779.4688 118.54336 771.77856 126.96064 762.30656 126.96064L762.30656 126.96064zM314.90048 126.96064l-45.09696 0c-8.30464 0-15.03232-8.4224-15.03232-18.78528 0-10.37312 6.72256-18.79552 15.03232-18.79552l45.09696 0c8.30464 0 15.03232 8.4224 15.03232 18.79552C329.9328 118.54336 323.20512 126.96064 314.90048 126.96064L314.90048 126.96064zM385.59232 671.86176l263.05024 0c20.72064 0 37.5808 16.85504 37.5808 37.5808L686.22336 803.38944c0 20.72064-16.86016 37.57568-37.5808 37.57568L385.59232 840.96512c-20.72576 0-37.5808-16.85504-37.5808-37.57568l0-93.94688C348.01152 688.7168 364.86656 671.86176 385.59232 671.86176L385.59232 671.86176zM385.59232 803.38944l263.05024 0 0.0256-93.94688L385.59232 709.44256 385.59232 803.38944 385.59232 803.38944zM874.12224 840.96512l-150.30784 0 0-37.57568 150.30784 0c31.08352 0 56.3712-25.28256 56.3712-56.3712l0-751.58528c0-31.08352-25.28256-56.36608-56.3712-56.36608L160.11264-60.93312c-31.08352 0-56.36608 25.28256-56.36608 56.36608L103.74656 747.01824c0 31.08352 25.28256 56.3712 56.36608 56.3712l150.31808 0 0 37.57568L160.11264 840.96512c-51.79904 0-93.94688-42.14784-93.94688-93.94688l0-751.58528c0-51.79904 42.14784-93.952 93.94688-93.952l714.00448 0c51.80416 0 93.952 42.14784 93.952 93.952L968.06912 747.01824C968.06912 798.8224 925.9264 840.96512 874.12224 840.96512L874.12224 840.96512z"  horiz-adv-x="1024" />

    
    <glyph glyph-name="wode" unicode="&#58968;" d="M955.196806 22.095713c-0.255489 3.709701-0.800192 9.350898-1.754699 16.684455-1.781269 13.690124-4.458794 28.86515-8.214483 45.165349-10.719297 46.530683-27.976048 93.082826-53.345086 136.734659-66.635625 114.658363-175.733525 187.866188-333.443832 199.762778 92.692439 21.116679 161.863537 103.975856 161.863537 202.980918C720.302244 738.405174 627.005828 831.616766 511.919265 831.616766s-208.382978-93.211593-208.382978-208.193916c0-99.006084 69.173142-181.86424 161.865581-202.980918-157.714395-11.899657-266.816383-85.12792-333.45814-199.818986-25.37006-43.663074-42.629876-90.227481-53.351218-136.770427-3.755689-16.305309-6.434236-31.483401-8.216527-45.176591-0.98721-7.58087-1.536-13.346747-1.779226-17.04725C62.537581-24.815138 96.654563-63.616766 143.817836-63.616766l312.491689 0 111.221525 0 312.491689 0C927.396535-63.616766 962.228886-24.395114 955.196806 22.095713zM359.10515 623.42285c0 84.320575 68.416894 152.67513 152.814116 152.67513s152.814116-68.355577 152.814116-152.67513c0-84.320575-68.416894-152.67513-152.814116-152.67513S359.10515 539.102275 359.10515 623.42285zM880.020695-8.09798 567.530028-8.09798c-55.597477 0-55.597477 0-111.221525 0L143.817836-8.09798c-13.765749 0-22.042571 9.538938-20.058954 23.026715l0.183952 1.249852 0.069493 1.262116c0.022483 0.415936 0.102196 1.515561 0.258555 3.251864 0.27695 3.078132 0.673469 6.701988 1.211018 10.824559 1.558483 11.971194 3.925333 25.391521 7.265086 39.884902 9.549158 41.452583 24.90507 82.882683 47.256271 121.34911 63.339816 109.00899 169.315641 173.900136 331.91703 173.900136 162.603433 0 268.57517-64.87275 331.907832-173.848016 22.348136-38.453142 37.700982-79.869956 47.247074-121.309253 3.337709-14.488271 5.704559-27.904511 7.26202-39.871617 0.536527-4.120527 0.933046-7.743361 1.209996-10.820471 0.156359-1.735281 0.23505-2.833884 0.258555-3.24982l0.087888-1.607537 0.273884-1.586076C902.380072 1.529868 893.967329-8.09798 880.020695-8.09798z"  horiz-adv-x="1024" />

    
    <glyph glyph-name="yinhangqiazhifu" unicode="&#58973;" d="M79.179294 766.072471h706.379294c43.369412 0 78.848-35.267765 78.848-78.336v-20.449883H239.104a149.232941 149.232941 0 0 1-105.261176-43.670588 148.058353 148.058353 0 0 1-44.092236-105.200941v-347.166118h-10.571294C35.84 171.248941 0.331294 206.486588 0.331294 249.584941V687.736471c0 43.068235 35.478588 78.336 78.848 78.336zM239.104 596.751059h706.379294c43.369412 0 78.848-35.267765 78.848-78.336v-28.491294H160.256v28.491294c0 43.098353 35.478588 78.336 78.848 78.336zM1024.331294 419.237647v-338.944c0-43.098353-35.508706-78.336-78.848-78.336H239.104c-43.369412 0-78.848 35.267765-78.848 78.336V419.237647H1024.331294z"  horiz-adv-x="1024" />

    
    <glyph glyph-name="faxian" unicode="&#59206;" d="M755.2 660.48c-10.24-2.56-240.64-94.72-335.36-186.88-92.16-92.16-181.76-325.12-186.88-335.36-2.56-10.24-2.56-20.48 5.12-28.16 5.12-5.12 10.24-7.68 17.92-7.68 2.56 0 5.12 0 10.24 2.56 10.24 2.56 240.64 94.72 335.36 186.88 92.16 92.16 181.76 325.12 186.88 335.36 2.56 10.24 2.56 20.48-5.12 28.16-7.68 7.68-17.92 10.24-28.16 5.12z m-189.44-330.24c-58.88-58.88-186.88-120.32-261.12-151.04 33.28 74.24 92.16 202.24 151.04 261.12 58.88 58.88 186.88 120.32 261.12 151.04-30.72-74.24-92.16-202.24-151.04-261.12zM512 384m-51.2 0a51.2 51.2 0 1 1 102.4 0 51.2 51.2 0 1 1-102.4 0ZM512 896C230.4 896 0 665.6 0 384s230.4-512 512-512c107.52 0 209.92 33.28 296.96 94.72 10.24 7.68 15.36 23.04 5.12 35.84-7.68 10.24-23.04 15.36-35.84 5.12-76.8-53.76-168.96-84.48-266.24-84.48-253.44 0-460.8 207.36-460.8 460.8S258.56 844.8 512 844.8s460.8-207.36 460.8-460.8c0-97.28-30.72-189.44-87.04-268.8-7.68-10.24-5.12-28.16 5.12-35.84 10.24-7.68 28.16-5.12 35.84 5.12C990.72 174.08 1024 276.48 1024 384 1024 665.6 793.6 896 512 896z"  horiz-adv-x="1024" />

    
    <glyph glyph-name="zuji-copy" unicode="&#58936;" d="M742.4 678.4c0 12.8 6.4 25.6 12.8 38.4 12.8 6.4 25.6 12.8 38.4 12.8 12.8 0 25.6-6.4 38.4-12.8 12.8-6.4 12.8-25.6 12.8-38.4 0-12.8-6.4-25.6-12.8-38.4-12.8-6.4-25.6-12.8-38.4-12.8-12.8 0-25.6 6.4-38.4 12.8-6.4 12.8-12.8 25.6-12.8 38.4zM601.6 768c0 12.8 6.4 32 19.2 44.8 12.8 12.8 25.6 19.2 44.8 19.2 19.2 0 32-6.4 44.8-19.2 12.8-12.8 19.2-25.6 19.2-44.8 0-19.2-6.4-32-19.2-44.8-12.8-12.8-25.6-19.2-44.8-19.2-19.2 0-32 6.4-44.8 19.2-12.8 12.8-19.2 25.6-19.2 44.8zM416 793.6c0 19.2 6.4 38.4 19.2 51.2 12.8 12.8 32 19.2 51.2 19.2 19.2 0 38.4-6.4 51.2-19.2 12.8-12.8 19.2-32 19.2-51.2 0-19.2-6.4-38.4-19.2-51.2-12.8-12.8-32-19.2-51.2-19.2-19.2 0-38.4 6.4-51.2 19.2-12.8 12.8-19.2 32-19.2 51.2zM179.2 780.8c0 25.6 12.8 44.8 25.6 64 19.2 19.2 44.8 25.6 64 25.6 25.6 0 51.2-12.8 64-25.6 19.2-19.2 25.6-38.4 25.6-64s-12.8-44.8-25.6-64c-19.2-19.2-44.8-25.6-64-25.6-25.6 0-51.2 12.8-64 25.6-19.2 19.2-25.6 38.4-25.6 64zM614.4 665.6h-249.6c-83.2-6.4-147.2-70.4-147.2-153.6 0-57.6 32-102.4 76.8-134.4 0 0 89.6-44.8 0-268.8-6.4-19.2-12.8-38.4-12.8-57.6 0-83.2 70.4-153.6 160-153.6 38.4 0 76.8 12.8 102.4 38.4 160 128 262.4 320 262.4 537.6v6.4c0 96-83.2 185.6-192 185.6z"  horiz-adv-x="1024" />

    
    <glyph glyph-name="zhekou-shi" unicode="&#58966;" d="M917.79584 750.85312a38.4 38.4 0 0 1-37.73952 37.86752l-314.30144 5.36064a38.00064 38.00064 0 0 1-27.80672-11.2384L113.152 358.05696a38.4 38.4 0 0 1 0-54.30784l318.59712-318.592c7.49568-7.5008 17.32608-11.24864 27.15136-11.24864s19.65568 3.74784 27.15136 11.24864L910.848 409.94304a38.35904 38.35904 0 0 1 11.2384 27.67872l-4.29056 313.23136z m-173.78304-211.65056c0-42.4192-34.38592-76.8-76.8-76.8-42.4192 0-76.8 34.3808-76.8 76.8 0 42.40896 34.3808 76.8 76.8 76.8s76.8-34.38592 76.8-76.8z"  horiz-adv-x="1024" />

    
    <glyph glyph-name="qqkaobei" unicode="&#58896;" d="M512 896A512 512 0 1 1 1024 384 512 512 0 0 1 512 896z m0 0M516.884259 730.097266c201.742734 0 211.643856-206.531223 211.643856-206.531223 30.594763-43.464748 14.048691-82.509353 14.048691-82.509352 98.370302-165.755396 34.786532-213.640288 17.393266-217.169036s-33.88777 20.376863-33.88777 20.376863a81.772662 81.772662 0 0 0-19.890647-36.348317c51.288403-25.688403 42.241842-57.587108 42.241841-57.587107s-10.799885-96.395971-224.093928-35.449554l-18.233093 3.550848c-204.439022-79.120576-229.803281 27.493295-229.803281 27.493295s-8.302504 44.267741 31.412489 61.145324c-23.183655 15.116892-31.412489 46.964029-31.412489 46.964029s-20.69364-36.304115-47.988029-23.080518-43.825727 131.270906 58.692144 216.402878c0 0-14.873784 50.463309 19.021353 80.630791 0 0 9.12023 202.118446 210.84823 202.118446zM337.448518 516.390676c-44.636086-40.724259-14.917986-81.500086-14.917986-81.500086a177.240403 177.240403 0 0 1-80.977036-169.320978 71.282187 71.282187 0 0 1 26.845008 32.804834c11.16823 24.377094 28.509928-3.956029 28.509928-3.956029s10.792518-55.885353 43.693122-77.772431-1.421813-35.854734-1.421813-35.854734-36.24518-0.545151-33.151079-26.940777c3.094101-26.285122 119.99954-59.333065 190.147223-0.898763l37.195511-5.201036c122.415885-45.67482 182.802417-3.153036 186.751079 5.00213 4.096 8.103597-18.417266 24.192921-39.140374 33.453122s-25.997813 19.072921-7.698418 32.141813 25.541065 39.044604 36.237813 65.852777 26.845007 13.768748 28.937209 6.210302a263.735252 263.735252 0 0 1 17.400633-32.804834s39.832863 45.313842-43.044834 179.052661c0 0 17.997353 40.098072-12.398504 72.667166 0 0-7.366906 187.929784-186.883683 187.929784s-176.069065-180.879655-176.069065-180.879655z m0 0"  horiz-adv-x="1024" />

    
    <glyph glyph-name="rexiao" unicode="&#58908;" d="M484.223 833.076c104.57-33.953 202.711-152.952 254.361-276.482 17.204-41.137 38.933-116.462 33.177-188.005-5.265-65.427-30.267-128.887-38.708-188.006 1.873 1.469 92.998 91.211 94.003 188.006 26.644-54.863 48.32-133.228 27.649-215.653-25.516-101.748-117.326-199.811-226.714-215.654 18.836 18.835 41.964 199.497-38.706 237.773 1.527-69.035-39.097-92.815-66.356-132.71-16.444 2.504-109.368 140.852-71.885 232.242-158.138-116.38-74.447-263.291-55.296-331.775-22.664 1.813-161.362 22.091-199.065 226.713-62.255 337.886 350.882 373.17 287.54 663.551z"  horiz-adv-x="1024" />

    
    <glyph glyph-name="yinhangqia" unicode="&#59038;" d="M875.157 785.335H148.682C66.669 785.335 0 721.841 0 643.532v-75.135h1023.84v75.135c0 78.309-66.668 141.803-148.683 141.803zM0 124.47c0-78.313 66.669-141.806 148.682-141.806h726.475c82.015 0 148.683 63.493 148.683 141.806V423.42H0v-298.95z m618.006 76.72h212.708c21.163 0 38.624-17.46 38.624-38.628 0-21.164-17.461-38.622-38.624-38.622H618.006c-21.163 0-38.625 17.458-38.625 38.622 0 21.168 16.932 38.628 38.625 38.628z"  horiz-adv-x="1024" />

    
    <glyph glyph-name="suo" unicode="&#59082;" d="M513.6 378.4c-20.5 0-37.1-16.6-37.1-37.1 0-14.5 8.5-27.8 21.8-33.8 7.3-3.3 11.4-11.2 9.9-19.1l-21.5-113.6h53.9l-21.5 113.6c-1.5 7.9 2.6 15.8 9.9 19.1 13.2 6 21.8 19.3 21.8 33.8-0.1 20.5-16.7 37.1-37.2 37.1zM585.6 341.3c0 39.7-32.3 72-72 72s-72-32.3-72-72c0-23.4 11.4-45.1 30-58.4l-23.2-122.3c-1-5.1 0.4-10.4 3.7-14.4 3.3-4 8.2-6.3 13.4-6.3h96c5.2 0 10.1 2.3 13.4 6.3 3.3 4 4.7 9.3 3.7 14.4l-23.2 122.3c18.8 13.3 30.2 35 30.2 58.4zM529 307.5c-7.3-3.3-11.4-11.2-9.9-19.1l21.5-113.6h-53.9l21.5 113.6c1.5 7.9-2.6 15.8-9.9 19.1-13.2 6-21.8 19.3-21.8 33.8 0 20.4 16.6 37.1 37.1 37.1 20.4 0 37.1-16.6 37.1-37.1 0-14.5-8.5-27.7-21.7-33.8zM729.9 579.5c19.6-3.7 38.5-10 56.1-18.6C766.7 694.6 650.9 796.6 513.6 796.6c-137.1 0-253.1-102-272.4-235.7 17.3 8.4 35.7 14.6 54.8 18.4 26.1 98.4 114.6 166.6 217 166.6 101.6 0 190.9-69.3 216.9-166.4zM308.9 505c-73.7-17.6-117.3-88.4-106-172.1 5.2-39 23.8-78.2 55.2-116.4 3.4-4.2 8.4-6.4 13.5-6.4 3.9 0 7.8 1.3 11 4 7.4 6.1 8.5 17.1 2.4 24.5-27.2 33.2-43.3 66.5-47.6 99-8.8 65.3 23.9 120.2 79.6 133.5 9.4 2.2 15.1 11.6 12.9 21-2.2 9.4-11.6 15.2-21 12.9zM905.4 413.1c-11.9 51.1-42 94.9-82.5 125.4 0.2 1.3 0.3 2.6 0.2 3.9-5.2 78.4-39.8 151.2-97.2 205.1-57.7 54.2-133.1 84-212.2 84-79 0-154.2-29.7-211.8-83.6-57.4-53.7-92-126.2-97.5-204.3-0.1-1.7 0-3.3 0.4-4.9-40.6-30.4-70.8-74.3-82.7-125.5-11.8-50.8-11.2-131.7 58.7-228.4 64.6-89.4 174-172.4 325.3-246.7 2.4-1.2 5.1-1.8 7.7-1.8 2.6 0 5.3 0.6 7.7 1.8 151 74.1 260.5 157.1 325.1 246.5 70 96.8 70.6 177.7 58.8 228.5zM513 745.9c-102.4 0-190.8-68.3-217-166.6-19.2-3.7-37.6-10-54.8-18.4C260.5 694.6 376.5 796.6 513.6 796.6 650.9 796.6 766.7 694.7 786 561c-17.6 8.6-36.5 14.9-56.1 18.6-26 97-115.3 166.3-216.9 166.3z m0-34.9c81.3 0 153.2-52.5 179.3-127.7-1.1 0-2.2 0.1-3.2 0.1-68.1 0-129.6-31.2-175.4-88.5-45.8 57.2-107.3 88.5-175.4 88.5-1.5 0-3.1-0.1-4.6-0.1 26 76 97.4 127.7 179.3 127.7z m0.6-737.9C256.3 101.3 122.7 262.4 155.9 405.2c19.3 83.1 96 143.4 182.3 143.4 63.5 0 120.7-32.9 160.9-92.8 3.2-4.8 8.7-7.7 14.5-7.7 5.8 0 11.2 2.9 14.5 7.7 40.3 59.8 97.4 92.8 161 92.8 86.4 0 163.1-60.3 182.4-143.4 33.1-142.8-100.6-303.9-357.9-432.1z"  horiz-adv-x="1024" />

    
    <glyph glyph-name="meishi" unicode="&#58892;" d="M457.82016 515.24096c0-33.73056 27.34592-61.0816 61.0816-61.0816 33.72544 0 61.07648 27.34592 61.07648 61.0816s-27.35104 61.07648-61.07648 61.07648c-33.73568 0-61.0816-27.34592-61.0816-61.07648zM761.06752 458.01984a17.54112 17.54112 0 0 1 14.66368-8.07424 17.49504 17.49504 0 0 1 14.7968 26.92096c-0.53248 0.82432-54.00064 86.52288-8.02816 144.55296 25.40032 32.08192 29.99296 72.61696 13.30176 117.23264-11.9296 31.85152-30.73536 54.73792-31.50848 55.71072a17.5104 17.5104 0 0 1-24.64256 2.31936 17.5104 17.5104 0 0 1-2.34496-24.61696c0.84992-1.03424 60.45696-74.97728 17.75104-128.91648-61.50656-77.65504 3.2256-180.76672 6.01088-185.12896z m117.4016-0.52736a17.57184 17.57184 0 0 1 14.6688-8.07424 17.4592 17.4592 0 0 1 9.4976 2.7648 17.4848 17.4848 0 0 1 5.31968 24.15616c-0.52736 0.8192-54.00576 86.52288-8.02816 144.55296 25.3952 32.08192 29.98784 72.61696 13.29664 117.23264-11.9296 31.85152-30.72512 54.73792-31.50848 55.7056a17.48992 17.48992 0 1 1-26.97728-22.27712c0.60928-0.7424 60.53376-74.86976 17.75104-128.91648-61.51168-77.69088 3.19488-180.80768 5.98016-185.14432z m-734.54592-4.72064a17.55136 17.55136 0 0 1 14.6688-8.07424h0.08192c3.49184 0 6.74304 1.02912 9.472 2.80064a17.44896 17.44896 0 0 1 5.2224 24.1152c-0.52736 0.82432-54.00064 86.52288-8.03328 144.55296 25.40032 32.08192 29.99296 72.61184 13.30176 117.23264-11.9296 31.8464-30.72512 54.73792-31.50848 55.7056a17.50016 17.50016 0 0 1-26.9824-22.27712c0.60928-0.73728 60.53376-74.86976 17.74592-128.91648-61.48096-77.68576 3.24608-180.79744 6.03136-185.1392z m117.40672-0.55296a17.57696 17.57696 0 0 1 14.6688-8.07424 17.46432 17.46432 0 0 1 14.7968 26.91584c-0.52736 0.82432-54.00064 86.528-8.02816 144.55296 25.3952 32.08192 29.99296 72.61696 13.32224 117.23264-11.9296 31.85152-30.73024 54.73792-31.5136 55.71072a17.50016 17.50016 0 0 1-26.9824-22.27712c0.60928-0.73728 60.53888-74.86976 17.75104-128.91136-61.53216-77.69088 3.20512-180.78208 5.98528-185.14944z m591.64672-365.88544h-0.1024A21.0944 21.0944 0 0 0 831.8976 107.52c0.79872 174.28992-140.3648 316.73344-314.68032 317.54752h-1.4848c-173.63456 0-315.28448-140.83584-316.0832-314.66496a21.0688 21.0688 0 0 0-21.07904-20.97664h-0.1024a21.08416 21.08416 0 0 0-20.97664 21.18144c0.91648 196.992 161.4592 356.61824 358.23104 356.61824h1.69984c197.55008-0.9216 357.5552-162.36544 356.62336-359.91552a21.08416 21.08416 0 0 0-21.0688-20.97664zM869.99552-62.30016h-0.31232l-705.1264 3.25632c-20.49024 0.08192-40.22784 10.02496-54.1696 27.29472-13.12256 16.24064-20.29568 37.51936-20.19328 59.96032 0.11264 22.43584 7.47008 43.65824 20.736 59.776 14.08 17.10592 33.39776 26.18368 54.4256 26.7776l460.86144-2.14016a21.0944 21.0944 0 0 0 20.98176-21.18656c-0.06656-11.648-8.68864-21.2992-21.18656-20.97664l-460.97408 2.14528c-10.57792 0-18.04288-7.14752-21.55008-11.42784-7.01952-8.51968-11.07456-20.59776-11.136-33.1776-0.06144-12.55424 3.8912-24.67328 10.82368-33.28512 3.49184-4.3008 10.9312-11.56608 21.56032-11.60704l705.2544-3.2512c10.57792 0 18.05312 7.13728 21.5552 11.4176 7.01952 8.5248 11.07968 20.62336 11.136 33.1776 0.06144 12.55936-3.89632 24.6784-10.8288 33.28512-3.49696 4.30592-10.92608 11.5712-21.55008 11.61728l-105.20064 0.49152a21.08416 21.08416 0 0 0 0.09728 42.15808h0.10752l105.18528-0.49152c20.48-0.08704 40.21248-10.02496 54.15936-27.29472 13.12768-16.24576 20.29056-37.52448 20.18816-59.96032-0.10752-22.42048-7.47008-43.63776-20.72576-59.78112-14.02368-17.01888-33.7408-26.7776-54.1184-26.7776z m-350.99648 496.256c-45.31712 0-82.18112 36.864-82.18112 82.18112 0 45.31712 36.864 82.19136 82.18112 82.19136 45.32736 0 82.19136-36.87424 82.19136-82.19136s-36.86912-82.18112-82.19136-82.18112z m0 122.21952c-22.0672 0-40.02816-17.96096-40.02816-40.0384 0-22.0672 17.96096-40.02816 40.02816-40.02816 22.06208 0 40.02816 17.96096 40.02816 40.02816 0.00512 22.07744-17.96608 40.0384-40.02816 40.0384z"  horiz-adv-x="1024" />

    
    <glyph glyph-name="zhuye" unicode="&#58952;" d="M721.92 5.632h-102.912v151.04c0 26.112-11.264 50.688-31.232 69.632-40.448 37.888-111.104 37.888-152.064 0-19.968-18.944-31.232-43.52-31.232-69.632v-151.04h-102.4c-18.944 0-36.352 6.656-49.664 19.456-13.824 12.8-20.992 29.696-20.992 48.128v264.704h-109.056l-5.12 5.632c-12.288 13.312-18.944 30.208-18.944 47.616 0 18.944 8.192 37.376 22.528 51.2l332.288 299.008c31.232 28.16 88.064 28.16 119.296 0l80.896-72.704v34.304c0 14.336 6.144 28.16 16.896 38.4 21.504 19.968 58.368 19.456 78.848 0 10.752-10.24 16.896-24.064 16.896-38.4l-1.024-135.168 40.96-36.352c33.28-29.696 66.56-58.88 98.304-89.088 14.848-14.336 22.528-32.768 22.528-51.2 0-17.408-6.656-34.304-18.944-47.616l-5.12-5.632H793.6v-264.704c0-18.432-7.68-35.328-21.504-48.128-13.824-12.288-31.232-19.456-50.176-19.456z"  horiz-adv-x="1024" />

    
    <glyph glyph-name="zhuanfa" unicode="&#58946;" d="M938.3 832.1H658c-12.1 0-21.9-9.8-21.9-21.9 0-12.1 9.8-21.9 21.9-21.9h198.7c-60.5-39.8-121.2-91.9-181.5-155.8-74.8-79.4-132.8-159.8-171-218.5-6.7-10.2-3.7-23.9 6.7-30.4 10.1-6.4 23.4-3.5 30 6.5 54.5 83.2 196.3 280.4 374.5 383.1 0.7-2.1 1-4.3 1-6.6v-149.9c0-12.1 9.8-21.9 21.9-21.9 12.1 0 21.9 9.8 21.9 21.9V810.2c0 12.1-9.8 21.9-21.9 21.9zM860.2-64.6H164.4c-27.6 0-53.2 12.6-72.3 35.5-18.1 21.7-28 50.3-28 80.6V594.4c0 30.3 10 58.9 28 80.6 19 22.9 44.7 35.5 72.3 35.5h326c12.1 0 21.9-9.8 21.9-21.9 0-12.1-9.8-21.9-21.9-21.9h-326c-31.2 0-56.5-32.4-56.5-72.3v-542.9c0-39.9 25.4-72.3 56.5-72.3h695.8c31.2 0 56.5 32.4 56.5 72.3V301.1c0 12.1 9.8 21.9 21.9 21.9 12.1 0 21.9-9.8 21.9-21.9v-249.6c0-30.3-10-58.9-28-80.6-19-22.9-44.7-35.5-72.3-35.5z"  horiz-adv-x="1024" />

    
    <glyph glyph-name="bingqilin" unicode="&#59176;" d="M555.4 484.7h28.9v-28.9h-28.9v28.9z m144.5 86.8h28.9v-28.9h-28.9v28.9z m-375.8 28.9H353v-28.9h-28.9v28.9zM280.7 557h28.9v-28.9h-28.9V557z m289.1 159h28.9v-28.9h-28.9V716z m-130.1 43.4h28.9v-28.9h-28.9v28.9z m57.8 28.9h28.9v-28.9h-28.9v28.9z m137.4-462.6c-57.7 0-109.9 33.3-135.2 85.3 16.9 25.2 26.8 55.5 26.8 88.1h-28.9c0-71.7-58.4-130.1-130.1-130.1-28.4 0-55.4 9-78 26L272 372c12-9 25.1-16.1 38.9-21.3-9.7-10.3-15.7-24.1-15.7-39.4 0-15.9-13-28.9-28.9-28.9-15.9 0-28.9 13-28.9 28.9V499.2c0 69 54 125.4 121.9 129.7 19.1-66.4 80.3-115.2 152.7-115.2 41.4 0 79 16 107.3 42 9.3-3.2 22.8-12.5 22.8-27.6v-43.4c0-31.9 25.9-57.8 57.8-57.8s57.8 25.9 57.8 57.8c0 8 6.5 14.5 14.5 14.5 7.2 0 13-5.4 14-12.3 0.2-3.1 0.4-6.2 0.4-9.4 0.1-83.7-68-151.8-151.7-151.8zM513.2-30c-0.4-1-0.8-1.9-1.2-2.6-0.3 0.7-0.7 1.6-1.1 2.5l-43.5 102.8 22.9 22.9 25.9-25.9 20.4 20.4-25.9 25.9 40.4 40.4-20.4 20.4-40.4-40.4-30.2 30.2L565.5 272l-20.4 20.4-47.5-47.4-30.2 30.2 25.9 25.9-20.4 20.4-25.9-25.9-26 25.9-20.4-20.5 25.9-25.9-31.5-31.5-41 97.2c4.5-0.4 8.9-0.6 13.5-0.6 43.9 0 83.6 17.9 112.4 46.7 32-55.3 90.6-90 155-90 10 0 19.7 1 29.3 2.6L513.2-30z m-75.9 173.8l2.4 2.4 30.2-30.2-14.7-14.7-17.9 42.5zM407.2 215l39.7 39.7 30.2-30.2-52-52-17.9 42.5zM512 802.8c71.7 0 130.1-58.4 130.1-130.1S583.8 542.6 512 542.6c-71.7 0-130.1 58.4-130.1 130.1S440.3 802.8 512 802.8z m266.2-275.3c-2 0.3-3.9 0.6-6 0.6-23.9 0-43.4-19.5-43.4-43.4 0-15.9-13-28.9-28.9-28.9s-28.9 13-28.9 28.9v43.4c0 23.1-14.7 40.6-31.5 50 11 14.8 19.5 31.5 24.9 49.6 53.6-10.6 96.4-49.7 113.8-100.2z m37.4-42.8c0 2.1-0.3 4.1-0.6 6.1-5.9 81.4-65.5 149.4-144.8 165.2 0.6 5.5 0.9 11 0.9 16.7 0 87.7-71.3 159-159 159s-159-71.3-159-159c0-5.1 0.3-10.2 0.8-15.2-81.3-7-145.3-75.3-145.3-158.3v-187.9c0-31.9 25.9-57.8 57.8-57.8s57.8 25.9 57.8 57.8c0 5.7 1.7 10.9 4.5 15.3l155.7-368c3.2-7.5 10-23.2 27.7-23.2 17.8 0 24.5 15.7 27.6 22.9L700 308.1v1c67.6 26.2 115.6 91.7 115.6 168.4 0 2.4-0.2 4.8-0.3 7.2h0.3z"  horiz-adv-x="1024" />

    
    <glyph glyph-name="qiaquan" unicode="&#58900;" d="M388.120204 670.498634c37.34030201 0 68.477491 31.13719 68.477492 68.477491 0 18.730966 12.406224 31.13719001 31.137189 31.13719l423.514432 0c56.07126701 0 99.61468101-43.543414 99.614681-93.411569L1010.863998 91.29825400000004c0-49.86815501-43.543414-93.41156901-93.411569-93.411569L493.937997-2.113314999999943c-18.730966 0-31.13719001 12.406224-31.137189 31.13719 0 37.34030201-31.13719 68.477491-68.477492 68.477491s-74.680603-31.13719-74.680603-68.477491c0-18.730966-12.406224-31.13719001-31.13719-31.13719L107.885497-2.113314999999943c-49.86815501 0-93.41156901 43.543414-93.411569 93.411569l0 585.403492c0 49.86815501 43.543414 93.41156901 93.411569 93.411569l180.620026 0c18.730966 0 31.13719001-12.406224 31.13719-31.13719 0-37.34030201 31.13719-68.477491 68.477491-68.477491z m37.340302-361.240052c0 18.730966-12.406224 31.13719001-31.13719 31.137189s-31.13719001-12.406224-31.137189-31.137189l0-43.543414c0-18.730966 12.406224-31.13719001 31.137189-31.13719s31.13719001 12.406224 31.13719 31.13719L425.460506 309.25858200000005z m0 193.02625c0 18.730966-12.406224 31.13719001-31.13719 31.13719s-31.13719001-12.406224-31.137189-31.13719l0-43.543414c0-18.730966 12.406224-31.13719001 31.137189-31.137189s31.13719001 12.406224 31.13719 31.137189l0 43.543414z"  horiz-adv-x="1024" />

    
    <glyph glyph-name="gengduo-tianchong" unicode="&#58991;" d="M106.666667 384m-106.666667 0a106.666667 106.666667 0 1 1 213.333333 0 106.666667 106.666667 0 1 1-213.333333 0ZM512 384m-106.666667 0a106.666667 106.666667 0 1 1 213.333334 0 106.666667 106.666667 0 1 1-213.333334 0ZM917.333333 384m-106.666666 0a106.666667 106.666667 0 1 1 213.333333 0 106.666667 106.666667 0 1 1-213.333333 0Z"  horiz-adv-x="1024" />

    
    <glyph glyph-name="fanhui" unicode="&#58916;" d="M710.153924 887.019603L266.007127 435.307476a81.118646 81.118646 0 0 1 0.861532-114.476097l446.192936-441.050666a26.922883 26.922883 0 0 1 37.853573 38.284339L304.722232 359.115718a27.27288 27.27288 0 0 0-0.323074 38.445877L748.545955 849.273722A26.922883 26.922883 0 1 1 710.180847 886.99268z"  horiz-adv-x="1024" />

    
    <glyph glyph-name="icon-" unicode="&#58949;" d="M868.7616 650.24a20.48 20.48 0 0 0 0-28.8768l-57.9584-57.9584a20.48 20.48 0 0 0-28.8768 28.8768L839.68 650.24a20.48 20.48 0 0 0 29.0816 0zM983.04 375.19359999999995a20.48 20.48 0 0 0-20.48-20.48h-81.92a20.48 20.48 0 1 0 0 40.96h81.92a20.48 20.48 0 0 0 20.48-20.48zM376.4224 593.5104a20.48 20.48 0 0 0-28.8768 0l-57.9584 57.9584a20.48 20.48 0 0 0 28.8768 28.8768l57.9584-57.9584a20.48 20.48 0 0 0 0-28.8768zM593.92 762.88a20.48 20.48 0 0 0 20.48-20.48v-81.92a20.48 20.48 0 1 0-40.96 0v81.92a20.48 20.48 0 0 0 20.48 20.48zM81.92 46.08000000000004H61.44a20.48 20.48 0 0 1 0-40.96h20.48zM921.6 46.08000000000004H122.88v-40.96h798.72a20.48 20.48 0 0 1 0 40.96zM327.68 435.2a245.76 245.76 0 0 0 245.76-226.304c7.168 0 14.1312 1.024 20.48 1.024h20.48a286.72 286.72 0 1 1-565.248-81.92 309.8624 309.8624 0 0 0 32.768 0h8.192a245.76 245.76 0 0 0 237.568 307.2zM593.92 209.91999999999996c7.5776 0 14.9504 0 22.528-1.2288a102.4 102.4 0 1 0 193.3312-61.44c9.8304 0 20.48 1.4336 29.9008 1.4336h14.336a143.36 143.36 0 1 1-278.9376 61.44c6.9632-0.8192 13.1072-0.2048 18.8416-0.2048zM327.68 435.2a245.76 245.76 0 0 0 245.76-226.304c7.168 0 14.1312 1.024 20.48 1.024h20.48a286.72 286.72 0 1 1-565.248-81.92 309.8624 309.8624 0 0 0 32.768 0h8.192a245.76 245.76 0 0 0 237.568 307.2zM737.28 373.76a143.36 143.36 0 0 0-6.144-40.96 143.36 143.36 0 0 0 39.7312-9.8304 184.32 184.32 0 0 1-350.8224 112.0256 255.1808 255.1808 0 0 0 36.6592-20.48A143.36 143.36 0 0 0 737.28 373.76z"  horiz-adv-x="1024" />

    
    <glyph glyph-name="icon-1" unicode="&#58955;" d="M675.84 697.9584a348.16 348.16 0 1 1 0-491.52 348.16 348.16 0 0 1 0 491.52z m-28.8768-463.2576a307.2 307.2 0 1 0 0 434.3808 307.2 307.2 0 0 0 0-434.3808zM675.84 234.70079999999996a20.48 20.48 0 0 0 28.8768 0l231.8336-231.8336A20.48 20.48 0 1 0 907.4688-25.600000000000023L675.84 205.61919999999998a20.48 20.48 0 0 0 0 29.0816zM574.464 596.5824zM574.464 306.99519999999995v0.2048-0.2048zM266.24 460.3904h-40.96a206.6432 206.6432 0 0 1 5.9392-59.392l39.5264 10.6496a165.2736 165.2736 0 0 0-4.5056 48.7424zM284.8768 596.5824a202.3424 202.3424 0 0 1-53.6576-95.4368h42.5984a162.2016 162.2016 0 0 0 193.3312 109.568l10.6496 39.5264a204.8 204.8 0 0 1-192.9216-53.6576z"  horiz-adv-x="1024" />

    
    <glyph glyph-name="qianbao" unicode="&#58905;" d="M1197.02069 687.668966c0 105.931034-81.213793 187.144828-180.082759 187.144827h-833.324138c-95.337931-7.062069-180.082759-88.275862-180.082759-187.144827v-610.868966c0-105.931034 81.213793-187.144828 180.082759-187.144828h833.324138c95.337931 0 180.082759 81.213793 180.082759 187.144828v120.055172h-296.606897c-95.337931 0-180.082759 81.213793-180.082759 187.144828s81.213793 187.144828 180.082759 187.144828h296.606897v116.524138zM808.606897 384c0-52.965517 38.841379-88.275862 88.275862-88.275862s88.275862 38.841379 88.275862 88.275862-38.841379 88.275862-88.275862 88.275862-88.275862-38.841379-88.275862-88.275862z"  horiz-adv-x="1200" />

    
    <glyph glyph-name="kefuzhongxin" unicode="&#59099;" d="M510.464 760.32c-156.16 0-282.624-121.344-282.624-270.848s126.464-270.848 282.624-270.848c156.16 0 282.624 121.344 282.624 270.848-0.512 150.016-126.976 270.848-282.624 270.848zM184.32 385.536V635.904c-3.584 0-7.168 0-10.752-0.512 57.856 122.88 186.88 208.896 336.896 208.896 150.016 0 279.04-85.504 336.896-208.896-3.584 0.512-7.168 0.512-10.752 0.512v-249.856c72.192 0 130.56 55.808 130.56 124.928 0 47.104-27.136 87.552-66.56 109.056-56.32 154.624-209.92 265.728-390.144 265.728S176.64 774.656 120.32 620.032c-39.936-21.504-66.56-62.464-66.56-109.056 0-69.12 58.368-125.44 130.56-125.44z m607.744-164.352c-73.728-66.048-173.056-106.496-281.6-106.496-108.544 0-207.872 40.448-281.6 105.984C96.768 155.648 10.24 39.936 10.24-117.76h1003.52c0 157.696-88.064 273.92-221.696 338.944z"  horiz-adv-x="1024" />

    
    <glyph glyph-name="erweima" unicode="&#58894;" d="M62.996776 411.938306l423.162696 0L486.159472 835.099978 62.996776 835.099978 62.996776 411.938306zM168.788218 729.30956l211.580836 0 0-211.580836L168.788218 517.728724 168.788218 729.30956zM539.055193 835.099978l0-423.162696 423.162696 0L962.217888 835.099978 539.055193 835.099978zM856.426447 517.728724L644.845611 517.728724 644.845611 729.30956l211.580836 0L856.426447 517.728724zM221.682915 570.623421l105.790418 0L327.473333 676.414863 221.682915 676.414863 221.682915 570.623421zM62.996776-64.12011099999995l423.162696 0L486.159472 359.04258500000003 62.996776 359.04258500000003 62.996776-64.12011099999995zM168.788218 253.252167l211.580836 0 0-211.580836L168.788218 41.67133100000001 168.788218 253.252167zM803.531749 676.414863L697.740308 676.414863l0-105.790418 105.790418 0L803.530726 676.414863zM539.055193-64.12011099999995l105.790418 0L644.845611 41.67030799999998 539.055193 41.67030799999998 539.055193-64.12011099999995zM644.845611 253.252167l0-211.580836 105.790418 0L750.636029 253.252167 644.845611 253.252167zM856.426447 41.67030799999998L750.636029 41.67030799999998 750.636029-64.12011099999995l211.580836 0L962.216865 147.46174900000005 856.426447 147.46174900000005 856.426447 41.67030799999998zM856.426447 253.252167l105.790418 0L962.216865 359.04258500000003 856.426447 359.04258500000003 856.426447 253.252167zM539.055193 359.04258500000003l0-105.790418 105.790418 0L644.845611 359.04258500000003 539.055193 359.04258500000003zM221.682915 94.56602799999996l105.790418 0L327.473333 200.356446 221.682915 200.356446 221.682915 94.56602799999996z"  horiz-adv-x="1024" />

    
    <glyph glyph-name="cuowu" unicode="&#58902;" d="M800.5 384c0-159.3-129.1-288.5-288.5-288.5-99.6 0-187.4 50.4-239.2 127.2-31.1 46-49.3 101.5-49.3 161.3 0 159.3 129.1 288.5 288.5 288.5S800.5 543.3 800.5 384zM556.9 384l60.9 60.9c12.4 12.4 12.4 32.5 0 44.9-12.4 12.4-32.5 12.4-44.9 0L512 428.9l-60.9 60.9c-12.4 12.4-32.5 12.4-44.9 0-12.4-12.4-12.4-32.5 0-44.9l60.9-60.9-60.9-60.9c-12.4-12.4-12.4-32.5 0-44.9 6.2-6.2 14.3-9.3 22.5-9.3s16.3 3.1 22.5 9.3l60.9 60.9 60.9-60.9c6.2-6.2 14.3-9.3 22.5-9.3 8.1 0 16.3 3.1 22.5 9.3 12.4 12.4 12.4 32.5 0 44.9L556.9 384z"  horiz-adv-x="1024" />

    
    <glyph glyph-name="fapiao-" unicode="&#58898;" d="M940.7232-121.9328a34.048 34.048 0 0 0-38.2464 0l-95.872 70.6048c-26.8032-15.6416-74.88-44.5952-119.9104-70.6048-11.2896-7.3984-26.2912-7.3984-41.3184 0-45.0304 26.0096-97.4336 58.88-120.3968 70.6048-26.7776-15.6416-82.4064-45.2608-133.6576-73.0624-7.8848-3.456-15.7696-3.456-23.6544-3.456s-15.7696 3.456-19.6864 6.9376c-47.2832 27.8016-107.2128 53.9392-130.176 69.5808-19.1744-11.7248-59.8784-46.976-97.3824-70.6816a32.64 32.64 0 0 0-37.4784 0c-11.2384 7.9104-18.7648 19.7632-18.7648 35.5584V856.832c0 23.4496 15.3344 39.0912 38.2976 39.0912H921.6c22.9632 0 38.2464-15.6416 38.2464-39.0912v-943.36c0-15.7696-7.6544-27.52-19.1232-35.4048zM513.4336 665.4976H255.0784c-22.4256 0-37.3504-15.2832-37.3504-38.2464s14.9248-38.2976 37.3504-38.2976h258.3296c22.4256 0 37.3504 15.3344 37.3504 38.2976s-14.9248 38.2464-37.3248 38.2464z m152.4736-204.7744H256.2304c-23.0912 0-38.5024-15.3344-38.5024-38.2976s15.4112-38.2976 38.5024-38.2976h409.6512c23.1168 0 38.528 15.3344 38.528 38.2976 0.0256 22.9632-15.3856 38.2976-38.5024 38.2976z m0-204.7232H256.2304c-23.0912 0-38.5024-15.3344-38.5024-38.2976s15.4112-38.2976 38.5024-38.2976h409.6512c23.1168 0 38.528 15.3344 38.528 38.2976 0.0256 22.9888-15.3856 38.2976-38.5024 38.2976z"  horiz-adv-x="1024" />

    
    <glyph glyph-name="zhengque" unicode="&#58915;" d="M512.6-29.3c-57.1 0-112.6 11.2-164.8 33.3-50.4 21.3-95.7 51.8-134.6 90.7-38.9 38.9-69.4 84.1-90.7 134.6-22 52.1-33.2 107.5-33.2 164.7 0 57.1 11.2 112.6 33.3 164.8 21.3 50.4 51.8 95.7 90.7 134.6 38.9 38.9 84.1 69.4 134.6 90.7 52.2 22.1 107.6 33.3 164.8 33.3 57.1 0 112.6-11.2 164.8-33.3 50.4-21.3 95.7-51.8 134.6-90.7 38.9-38.9 69.4-84.1 90.7-134.6 22-52.2 33.2-107.7 33.2-164.8 0-57.1-11.2-112.6-33.3-164.8-21.3-50.4-51.8-95.7-90.7-134.6-38.9-38.9-84.1-69.4-134.6-90.7-52.2-22-107.6-33.2-164.8-33.2z m0 810.5c-213.5 0-387.3-173.7-387.3-387.3 0-213.5 173.7-387.3 387.3-387.3 213.5 0 387.3 173.7 387.3 387.3 0 213.6-173.7 387.3-387.3 387.3zM512.6 394m-256.1 0a256.1 256.1 0 1 1 512.2 0 256.1 256.1 0 1 1-512.2 0ZM477.1 256.2c-9.9-9.9-25.9-9.9-35.8 0L333.9 363.6c-9.9 9.9-9.9 25.9 0 35.8 9.9 9.9 25.9 9.9 35.8 0L477.1 292c9.9-9.9 9.9-26 0-35.8zM704.1 519c9.9-9.9 9.9-25.9 0-35.8L477.3 256.3c-9.9-9.9-25.9-9.9-35.8 0-9.9 9.9-9.9 25.9 0 35.8L668.3 519c9.9 9.8 25.9 9.8 35.8 0z"  horiz-adv-x="1024" />

    
    <glyph glyph-name="shoucang" unicode="&#58925;" d="M768-51.76888889999998c-10.24 0-22.18666667 3.41333333-32.42666667 8.53333334l-221.86666666 110.93333334-223.57333334-110.93333334c-22.18666667-11.94666667-51.2-10.24-71.68 5.12-20.48 15.36-32.42666667 42.66666667-27.30666666 68.26666666l46.08 238.93333334L61.44 432.92444444C42.66666667 451.69777778 35.84 480.7111111 42.66666667 504.60444444c8.53333333 25.6 29.01333333 44.37333333 56.32 47.78666666l244.05333333 44.37333334 109.22666667 221.86666666c11.94666667 23.89333333 35.84 39.25333333 61.44 39.25333334s51.2-15.36 61.44-39.25333334l109.22666666-221.86666666 244.05333334-42.66666666c25.6-3.41333333 47.78666667-22.18666667 54.61333333-47.78666668 8.53333333-25.6 1.70666667-52.90666667-17.06666667-71.68L790.18666667 269.08444443999997l44.37333333-238.93333334c5.12-27.30666667-6.82666667-52.90666667-27.30666667-68.26666666-10.24-8.53333333-23.89333333-13.65333333-39.25333333-13.65333334z"  horiz-adv-x="1024" />

    
    <glyph glyph-name="huaduo" unicode="&#58893;" d="M375.3728 54.1568c92.96 12.5184 203.8784 71.264 299.5456 166.9248 22.6112 22.6112 43.1616 46.08 61.5232 69.952C712.7616 109.6064 621.2608-25.6 512-25.6c-51.1488 0-98.4 29.632-136.6272 79.7568z m-87.808 422.8096C311.2384 658.3936 402.7328 793.6 512 793.6c51.1488 0 98.4-29.632 136.6272-79.7568-92.96-12.5184-203.8784-71.264-299.5456-166.9248a719.1232 719.1232 0 0 1-61.5232-69.952z m-129.536-139.5648c57.3248-74.2464 163.6608-140.9344 294.336-175.9488a719.1232 719.1232 0 0 1 91.3472-18.304c-168.9664-70.208-331.808-58.5728-386.432 36.0512-25.5744 44.288-23.5456 100.032 0.7552 158.2016z m322.2592 287.4496c168.9664 70.208 331.808 58.5728 386.432-36.0512 25.5744-44.288 23.5456-100.032-0.7552-158.2016-57.3184 74.2464-163.648 140.9344-294.336 175.9488a719.1232 719.1232 0 0 1-91.3408 18.304zM294.656 667.2448c-35.6352-86.7648-40.224-212.1984-5.2032-342.8736a719.1232 719.1232 0 0 1 29.8176-88.256C173.9904 347.3408 102.6432 494.176 157.2736 588.8c25.5744 44.288 74.8608 70.4 137.3824 78.4448z m410.0736-135.36c145.28-111.2256 216.6272-258.0608 161.9968-352.6848-25.5744-44.288-74.8608-70.4-137.3824-78.4448 35.6352 86.7648 40.224 212.1984 5.2032 342.8736a719.1232 719.1232 0 0 1-29.8176 88.256zM512 217.6c-88.3648 0-160 71.6352-160 160s71.6352 160 160 160 160-71.6352 160-160-71.6352-160-160-160z m0 83.2c42.4128 0 76.8 34.3872 76.8 76.8s-34.3872 76.8-76.8 76.8-76.8-34.3872-76.8-76.8 34.3872-76.8 76.8-76.8z"  horiz-adv-x="1024" />

    
    <glyph glyph-name="zhixiang" unicode="&#58899;" d="M554.917104 814.885282l129.620505 46.271733L1369.688766 730.940006 1253.385942 639.786963zM702.107517 504.579196L546.370042 558.900904l-2.790791 245.955995 697.730308-180.513731zM539.410818 804.819972l1.237038-244.575512L108.71301 713.21387zM21.495479 834.50319L475.545032 895.758558l62.326236-78.137876-431.059973-89.803805z m23.110302-127.538419l-3.18278 0.894757v0.16617z m617.261803-214.991711l-127.517115-207.6405L0.710125 576.301803l94.601409 120.66299z m25.513365-2.589115l1.76679-616.080156L52.016644 182.389881l-6.87969 341.300194 510.68911-289.613049z m33.931184 7.504599l526.034907 119.369143 145.254613-121.005271-475.380283-165.731772z m538.501859-73.284882l2.72972-219.968267-550.875074-330.767622-7.101248 619.356671 208.769598-199.317837z"  horiz-adv-x="1393" />

    
    <glyph glyph-name="xitong" unicode="&#58903;" d="M549.77 832h-75.54a32 32 0 0 1-31.38-25.72l-19.52-97.59a32.13 32.13 0 0 0-20.62-23.86Q389.37 680 376.59 674a32.53 32.53 0 0 0-13.78-3.07 31.87 31.87 0 0 0-17.71 5.35l-82.8 55.21a32 32 0 0 1-40.38-4l-53.41-53.41a32 32 0 0 1-4-40.38l55.21-82.81a32.15 32.15 0 0 0 2.28-31.48q-6-12.77-10.82-26.13a32.13 32.13 0 0 0-23.86-20.62l-97.6-19.52A32 32 0 0 1 64 421.77v-75.53a32 32 0 0 1 25.72-31.38l97.59-19.52a32.13 32.13 0 0 0 23.86-20.62Q216 261.37 222 248.59a32.15 32.15 0 0 0-2.28-31.48l-55.21-82.81a32 32 0 0 1 4-40.38l53.41-53.41a32 32 0 0 1 40.38-4l82.81 55.21a31.87 31.87 0 0 0 17.71 5.35 32.52 32.52 0 0 0 13.77-3.07q12.77-6 26.13-10.83a32.13 32.13 0 0 0 20.62-23.86l19.52-97.59A32 32 0 0 1 474.23-64h75.53a32 32 0 0 1 31.38 25.72l19.52 97.59a32.13 32.13 0 0 0 20.62 23.86Q634.63 88 647.41 94a32.53 32.53 0 0 0 13.78 3.07 31.87 31.87 0 0 0 17.71-5.35l82.81-55.21a32 32 0 0 1 40.38 4l53.41 53.41a32 32 0 0 1 4 40.38l-55.21 82.81a32.15 32.15 0 0 0-2.29 31.48q6 12.77 10.82 26.12a32.13 32.13 0 0 0 23.86 20.62l97.59 19.52A32 32 0 0 1 960 346.23v75.54a32 32 0 0 1-25.72 31.38l-97.59 19.52a32.13 32.13 0 0 0-23.86 20.62Q808 506.63 802 519.41a32.15 32.15 0 0 0 2.28 31.48l55.21 82.81a32 32 0 0 1-4 40.38l-53.41 53.41a32 32 0 0 1-40.38 4l-82.81-55.21a31.87 31.87 0 0 0-17.71-5.35 32.52 32.52 0 0 0-13.77 3.07q-12.77 6-26.13 10.83a32.13 32.13 0 0 0-20.62 23.86l-19.51 97.59A32 32 0 0 1 549.77 832zM512 192a192 192 0 1 0 135.76 56.24A190.74 190.74 0 0 0 512 192z"  horiz-adv-x="1024" />

    
    <glyph glyph-name="chongzhi" unicode="&#59081;" d="M512 896c282.752 0 512-229.248 512-512s-229.376-512-512-512S0 101.248 0 384 229.376 896 512 896z m78.037333-831.658667l254.805334 240.64c5.162667 6.826667 8.490667 15.36 8.490666 25.002667 0 21.034667-15.36 37.973333-34.56 38.997333v0.128h-0.896c-0.256 0-0.469333 0.128-0.682666 0.128-0.256 0-0.469333-0.128-0.725334-0.128h-73.557333V619.904C742.912 656.042667 717.653333 682.666667 684.373333 682.666667H382.506667c-33.408 0-58.538667-26.752-58.538667-62.762667v-250.922667h-75.093333c-5.376 0-9.045333-1.493333-9.045334-1.493333-15.232-4.565333-26.496-19.541333-26.496-37.504 0-9.898667 3.413333-18.688 9.088-25.6l254.549334-240.426667c15.488-13.226667 35.114667-21.290667 56.362666-21.290666 21.461333 0 41.216 8.149333 56.704 21.674666zM682.666667 554.666667l-85.546667-161.749334h81.834667v-50.517333H558.933333v-32.085333h119.978667v-50.474667H558.933333V170.666667h-52.48v89.173333H386.474667v50.474667h120.106666v32.085333H386.432V392.96h82.56L384 553.557333h62.464l84.906667-160.64h2.090666L619.008 554.666667H682.666667z"  horiz-adv-x="1024" />

    
    <glyph glyph-name="weixin" unicode="&#58897;" d="M575.567 372.753c-10.263 0-20.526-9.53-20.526-21.259 0-9.53 10.258-19.06 20.526-19.06 15.396 0 26.392 9.53 26.392 19.06 0 11.729-10.991 21.259-26.392 21.259z m-67.451 98.983c16.13 0 26.394 10.263 26.394 25.659 0 16.131-10.263 25.661-26.394 25.661-15.396 0-30.061-9.53-30.061-25.661 0-15.401 14.665-25.659 30.061-25.659z m8.066 350.654c-248.533 0-450.003-201.471-450.003-450.003 0-248.526 201.47-449.997 450.003-449.997 248.526 0 449.997 201.471 449.997 449.997 0 248.532-201.465 450.003-449.997 450.003z m-85.05-564.011c-27.13 0-46.925 4.397-72.584 11.734l-74.05-37.398 21.264 63.059c-52.058 36.655-82.852 82.847-82.852 139.301 0 99.71 93.848 175.962 208.222 175.962 101.18 0 191.359-60.123 208.955-145.173-7.328 1.471-13.932 2.198-19.795 2.198-99.714 0-176.694-74.782-176.694-164.961 0-15.396 2.202-29.323 5.866-43.992-5.866-0.73-12.466-0.73-18.332-0.73z m305.737-71.846l14.66-52.795-55.722 31.527c-21.259-4.397-41.79-10.996-63.049-10.996-98.249 0-175.962 67.449-175.962 151.029 0 83.585 77.714 151.034 175.962 151.034 93.11 0 176.69-67.449 176.69-151.034 0-46.92-31.522-88.708-72.579-118.771v0.006zM362.943 523.056c-15.391 0-31.522-9.53-31.522-25.661 0-15.401 16.13-25.664 31.522-25.664 14.67 0 26.399 10.263 26.399 25.664 0 16.131-11.729 25.661-26.399 25.661z m327.736-150.303c-11.001 0-20.531-9.53-20.531-21.259 0-9.53 9.53-19.06 20.531-19.06 14.659 0 25.66 9.53 25.66 19.06-0.001 11.729-11.002 21.259-25.66 21.259z m0 0"  horiz-adv-x="1024" />

    
    <glyph glyph-name="weibo" unicode="&#58880;" d="M411.270737 288.350316c-17.973895 7.504842-41.189053-0.229053-52.264421-17.542737-11.223579-17.394526-5.955368-38.103579 11.870316-46.201263 18.108632-8.232421 42.132211-0.417684 53.342316 17.421474C435.253895 260.05557899999997 429.446737 280.62989500000003 411.270737 288.350316zM455.545263 306.64757899999995c-6.885053 2.721684-15.508211-0.579368-19.550316-7.329684-3.920842-6.790737-1.751579-14.524632 5.146947-17.367579 7.019789-2.883368 16.006737 0.458105 20.048842 7.370105C465.071158 296.259368 462.551579 304.087579 455.545263 306.64757899999995zM427.52 426.684632c-115.968-11.439158-203.924211-82.216421-196.378947-158.073263 7.531789-75.910737 107.654737-128.161684 223.649684-116.749474 115.994947 11.439158 203.924211 82.216421 196.392421 158.140632C643.664842 385.859368 543.541895 438.110316 427.52 426.684632zM529.300211 247.70021099999997c-23.673263-53.355789-91.769263-81.798737-149.530947-63.232-55.754105 17.933474-79.373474 72.811789-54.945684 122.246737 23.956211 48.464842 86.352842 75.870316 141.541053 61.561263C523.506526 353.562947 552.663579 299.85684200000003 529.300211 247.70021099999997zM512 896C229.241263 896 0 666.772211 0 384c0-282.758737 229.241263-512 512-512 282.772211 0 512 229.241263 512 512C1024 666.772211 794.772211 896 512 896zM455.531789 101.02568399999996c-145.354105 0-293.941895 70.197895-293.941895 185.667368 0 60.362105 38.386526 130.182737 104.474947 196.069053 88.252632 87.929263 191.164632 127.986526 229.874526 89.397895 17.084632-17.003789 18.741895-46.457263 7.760842-81.623579-5.726316-17.690947 16.666947-7.895579 16.666947-7.936 71.343158 29.763368 133.564632 31.514947 156.321684-0.862316 12.139789-17.246316 10.954105-41.472-0.215579-69.510737-5.173895-12.921263 1.589895-14.928842 11.466105-17.879579 40.178526-12.422737 84.924632-42.455579 84.924632-95.380211C772.837053 211.36168399999997 646.090105 101.02568399999996 455.531789 101.02568399999996zM718.672842 468.197053c4.715789 14.457263 1.765053 30.962526-9.202526 43.061895-10.954105 12.072421-27.136 16.666947-42.037895 13.527579l0 0.026947c-12.463158-2.694737-24.724211 5.268211-27.392 17.664-2.667789 12.463158 5.281684 24.697263 17.744842 27.338105 30.531368 6.467368 63.595789-2.937263 85.989053-27.715368 22.447158-24.764632 28.456421-58.489263 18.849684-88.064-3.907368-12.099368-16.936421-18.728421-29.062737-14.848-12.139789 3.920842-18.782316 16.922947-14.874947 28.995368L718.672842 468.183579zM853.261474 424.865684c-0.013474-0.013474-0.013474-0.080842-0.013474-0.107789-4.567579-14.026105-19.712-21.706105-33.778526-17.165474-14.133895 4.554105-21.854316 19.590737-17.300211 33.670737l0 0.013474c13.999158 43.169684 5.12 92.429474-27.567158 128.565895-32.714105 36.122947-80.949895 49.92-125.507368 40.488421-14.484211-3.085474-28.752842 6.130526-31.838316 20.574316-3.098947 14.403368 6.144 28.631579 20.641684 31.717053l0.026947 0c62.625684 13.271579 130.519579-6.117053 176.545684-56.966737C860.483368 554.886737 872.892632 485.618526 853.261474 424.865684z"  horiz-adv-x="1024" />

    
    <glyph glyph-name="pingjia" unicode="&#58888;" d="M930.56 57.6H640l-128-93.44-119.04 93.44H93.44c-51.2 0-93.44 42.24-93.44 93.44V705.28c0 51.2 42.24 93.44 93.44 93.44h838.4c51.2 0 93.44-42.24 93.44-93.44v-555.52c-1.28-51.2-43.52-92.16-94.72-92.16zM512 414.72m-46.08 0a46.08 46.08 0 1 1 92.16 0 46.08 46.08 0 1 1-92.16 0ZM311.04 414.72m-46.08 0a46.08 46.08 0 1 1 92.16 0 46.08 46.08 0 1 1-92.16 0ZM712.96 414.72m-46.08 0a46.08 46.08 0 1 1 92.16 0 46.08 46.08 0 1 1-92.16 0Z"  horiz-adv-x="1025" />

    
    <glyph glyph-name="shouji" unicode="&#58972;" d="M284.9 658.7h-34.2c-6.2 0-11.3 5.1-11.3 11.3v45.6c0 6.2 5.1 11.3 11.3 11.3h34.2c6.2 0 11.3-5.1 11.3-11.3V670c0-6.3-5.1-11.3-11.3-11.3zM284.9 717.1c0.8 0 1.5-0.7 1.5-1.5V670c0-0.8-0.7-1.5-1.5-1.5h-34.2c-0.8 0-1.5 0.7-1.5 1.5v45.6c0 0.8 0.7 1.5 1.5 1.5h34.2m0 9.7h-34.2c-6.2 0-11.3-5.1-11.3-11.3V670c0-6.2 5.1-11.3 11.3-11.3h34.2c6.2 0 11.3 5.1 11.3 11.3v45.6c0 6.1-5.1 11.2-11.3 11.2zM284.9 534.4h-34.2c-6.2 0-11.3 5.1-11.3 11.3v71.5c0 6.2 5.1 11.3 11.3 11.3h34.2c6.2 0 11.3-5.1 11.3-11.3v-71.5c0-6.2-5.1-11.3-11.3-11.3zM284.9 618.8c0.8 0 1.5-0.7 1.5-1.5v-71.5c0-0.8-0.7-1.5-1.5-1.5h-34.2c-0.8 0-1.5 0.7-1.5 1.5v71.5c0 0.8 0.7 1.5 1.5 1.5h34.2m0 9.7h-34.2c-6.2 0-11.3-5.1-11.3-11.3v-71.5c0-6.2 5.1-11.3 11.3-11.3h34.2c6.2 0 11.3 5.1 11.3 11.3v71.5c0 6.3-5.1 11.3-11.3 11.3zM284.9 421.6h-34.2c-6.2 0-11.3 5.1-11.3 11.3v71.5c0 6.2 5.1 11.3 11.3 11.3h34.2c6.2 0 11.3-5.1 11.3-11.3v-71.5c0-6.2-5.1-11.3-11.3-11.3zM284.9 505.9c0.8 0 1.5-0.7 1.5-1.5v-71.5c0-0.8-0.7-1.5-1.5-1.5h-34.2c-0.8 0-1.5 0.7-1.5 1.5v71.5c0 0.8 0.7 1.5 1.5 1.5h34.2m0 9.8h-34.2c-6.2 0-11.3-5.1-11.3-11.3v-71.5c0-6.2 5.1-11.3 11.3-11.3h34.2c6.2 0 11.3 5.1 11.3 11.3v71.5c0 6.2-5.1 11.3-11.3 11.3zM765.7 458.7h-34.2c-6.2 0-11.3 5.1-11.3 11.3v96.3c0 6.2 5.1 11.3 11.3 11.3h34.2c6.2 0 11.3-5.1 11.3-11.3V470c0-6.3-5.1-11.3-11.3-11.3zM765.7 567.8c0.8 0 1.5-0.7 1.5-1.5V470c0-0.8-0.7-1.5-1.5-1.5h-34.2c-0.8 0-1.5 0.7-1.5 1.5v96.3c0 0.8 0.7 1.5 1.5 1.5h34.2m0 9.7h-34.2c-6.2 0-11.3-5.1-11.3-11.3v-96.3c0-6.2 5.1-11.3 11.3-11.3h34.2c6.2 0 11.3 5.1 11.3 11.3v96.3c0 6.2-5.1 11.3-11.3 11.3zM700.6-64.2H316.4c-32.2 0-58.6 26.4-58.6 58.6V772.5c0 32.2 26.4 58.6 58.6 58.6h384.2c32.2 0 58.6-26.4 58.6-58.6v-778.1c0-32.3-26.4-58.6-58.6-58.6zM700.6 812.6c21.5 0 39.1-17.5 39.1-39.1v-778.1c0-21.5-17.5-39.1-39.1-39.1H316.4c-21.5 0-39.1 17.5-39.1 39.1V773.5c0 21.5 17.5 39.1 39.1 39.1h384.2m0 19.5H316.4c-32.2 0-58.6-26.4-58.6-58.6v-778.1c0-32.2 26.4-58.6 58.6-58.6h384.2c32.2 0 58.6 26.4 58.6 58.6V773.5c0 32.3-26.4 58.6-58.6 58.6zM508.2 831.1l-153.4 1 0.5-19.5h22.6s1.3 0.1 1.3-0.9 0-27.3 27.1-27.3h204c27.1 0 27.1 26.2 27.1 27.3 0 1 1.3 0.9 1.3 0.9h22.6l0.5 19.5-153.6-1zM601.8-15H415.3c-0.7 0-1.2 0.5-1.2 1.2v9.5c0 0.7 0.5 1.2 1.2 1.2h186.5c0.7 0 1.2-0.5 1.2-1.2v-9.5c0-0.6-0.6-1.2-1.2-1.2z"  horiz-adv-x="1024" />

    
    <glyph glyph-name="huoguo" unicode="&#58909;" d="M513 151.5c-110.2 0-214.8 47.8-287 131.2-9 10.4-7.9 26.2 2.5 35.3 10.4 9 26.2 7.9 35.3-2.5 62.7-72.5 153.5-114 249.2-114 173.3 0 315.7 134.4 328.5 304.5h-657c3.1-41.7 13.9-81.7 32.3-119.4 6.1-12.4 0.9-27.4-11.5-33.4-12.4-6.1-27.4-0.9-33.4 11.5-25.4 52-38.3 108-38.3 166.3 0 13.8 11.2 25 25 25h708.9c13.8 0 25-11.2 25-25 0-51.2-10-100.9-29.8-147.7-19.1-45.2-46.5-85.8-81.3-120.6s-75.4-62.2-120.6-81.3c-46.9-19.8-96.6-29.9-147.8-29.9zM752.3-57.2H273.7c-8.4 0-16.3 4.2-20.9 11.3-4.6 7.1-5.4 16-2 23.7l90.9 208.7c4 9.1 13 15 22.9 15h296.9c9.9 0 19-5.9 22.9-15l90.9-208.7c3.4-7.7 2.6-16.6-2-23.7-4.7-7.1-12.5-11.3-21-11.3z m-440.5 50h402.4l-69.1 158.7H380.9l-69.1-158.7zM648 506H378c-7.5 0-14.5 3.3-19.3 9.1-4.7 5.8-6.7 13.3-5.3 20.7l51.3 264.6c2.3 11.8 12.6 20.2 24.5 20.2h167.5c12 0 22.3-8.5 24.5-20.2l51.3-264.6c1.4-7.3-0.5-14.9-5.3-20.7S655.4 506 648 506z m-239.7 50h209.4l-41.6 214.6H449.9L408.3 556z"  horiz-adv-x="1024" />

    
    <glyph glyph-name="hongbao" unicode="&#58967;" d="M525.092867 597.206999L941.583849 787.949394C924.080754 817.994078 891.417497 838.115747 853.792732 838.115747H176.409152c-32.663257 0-62.707941-17.503096-80.348856-42.586272L525.092867 597.206999z m0 0M535.153701 547.040646c-2.480754-2.480754-7.580081-2.480754-10.060834-2.480754-2.480754 0-7.580081 0-10.060835 2.480754L78.557201 750.32463v-745.190848c0-55.26568 45.204845-100.332705 100.332705-100.332705h677.38358c55.26568 0 100.332705 45.204845 100.332705 100.332705V737.783042L535.153701 547.040646z m105.432033-318.639031c15.022342 0 25.083176-10.060834 25.083176-25.083176 0-15.022342-10.060834-25.083176-25.083176-25.083177H540.253028v-97.851951c0-15.022342-10.060834-25.083176-25.083176-25.083176-15.022342 0-25.083176 10.060834-25.083176 25.083176v97.851951h-100.332706c-15.022342 0-25.083176 10.060834-25.083176 25.083177 0 15.022342 10.060834 25.083176 25.083176 25.083176h100.332706v60.227187H387.273217c-15.022342 0-25.083176 10.060834-25.083177 25.083176 0 15.022342 10.060834 25.083176 25.083177 25.083177h75.249529l-82.82961 82.829609c-10.060834 10.060834-10.060834 25.083176 0 35.144011 10.060834 10.060834 25.083176 10.060834 35.144011 0l100.332705-100.332705 100.332705 100.332705c10.060834 10.060834 25.083176 10.060834 35.144011 0 10.060834-10.060834 10.060834-25.083176 0-35.144011L567.816958 338.795155h75.249529c15.022342 0 25.083176-10.060834 25.083177-25.083177 0-15.022342-10.060834-25.083176-25.083177-25.083176H540.253028v-60.227187h100.332706z m0 0"  horiz-adv-x="1024" />

    
    <glyph glyph-name="pifu" unicode="&#58951;" d="M772.8 800v-64l163.2-161.6-91.2-91.2c-12.8 11.2-27.2 16-43.2 16-36.8 0-65.6-28.8-65.6-65.6V96c0-35.2-28.8-64-64-64H352c-35.2 0-64 28.8-64 64V433.6c0 36.8-28.8 65.6-65.6 65.6-16 0-32-6.4-43.2-16l-91.2 91.2L249.6 736h40l1.6-1.6C336 667.2 420.8 624 512 624c91.2 0 176 41.6 220.8 110.4 0 1.6 1.6 1.6 1.6 1.6h38.4V800M291.2 800H256c-22.4 0-38.4-6.4-49.6-19.2L43.2 619.2c-25.6-25.6-25.6-65.6 0-89.6l94.4-94.4c11.2-11.2 27.2-17.6 41.6-17.6s30.4 6.4 41.6 17.6h1.6c1.6 0 1.6 0 1.6-1.6V96c0-70.4 57.6-128 128-128h320c70.4 0 128 57.6 128 128V433.6c0 1.6 0 1.6 1.6 1.6h1.6c11.2-11.2 27.2-17.6 41.6-17.6 16 0 30.4 6.4 41.6 17.6l94.4 94.4c25.6 25.6 25.6 65.6 0 89.6L819.2 780.8c-12.8 12.8-28.8 19.2-46.4 19.2h-40c-22.4 0-41.6-11.2-54.4-30.4-33.6-49.6-96-81.6-168-81.6s-134.4 33.6-168 81.6C332.8 788.8 312 800 291.2 800z"  horiz-adv-x="1024" />

    
    </font>
</defs>
</svg>
